<?xml version="1.0" encoding="UTF-8"?>
<svg id="Layer_1" data-name="Layer 1" xmlns="http://www.w3.org/2000/svg" viewBox="0 0 1200 1200">
  <defs>
    <style>
      .cls-1 {
        fill: #fff;
      }
    </style>
  </defs>
  <path class="cls-1" d="M888.44,123.53v47.3h151.84c3.24,0,17.92,8.92,20.89,11.85,7.84,7.7,11.89,19.99,12.82,30.84,3.77,43.96,3.25,132.31-8.26,173.78-22.48,81.06-94.93,138.79-177,151.3-2.25,36.18-6.19,69.74-18.93,103.83-32.73,87.53-108.74,153.83-199.69,175.23l31.28,96.93c34.7,2.96,73.75-3.11,107.93.27,18.92,1.87,33.81,12.5,40.5,30.43l36.8,109.62H330.17l36.8-109.62c6.69-17.93,21.58-28.56,40.5-30.43,34.18-3.38,73.23,2.69,107.93-.27l31.11-97.91c-91.02-19.42-167.08-87.54-199.51-174.25-12.75-34.09-16.68-67.66-18.93-103.83-82.45-12.68-154.11-70-177-151.3-3.21-11.41-3.97-23.47-8.19-34.56v-147.35c6.09-12.37,10.38-23.59,23.52-30.14,1.83-.91,10.89-4.43,11.94-4.43h149.11c1.28,0,2.45-3.04,2.73-4.55,2.21-12.08-1.61-29.94,0-42.75h558.27ZM328.35,263.61h-92.74v75.49c0,5.39,6.41,25.22,8.77,31.25,13.85,35.4,46.96,64.59,83.98,73.35v-180.09ZM981.19,263.61h-92.74v180.09c36.4-5.31,67.88-34.64,82.16-67.89,3.12-7.25,10.58-29.8,10.58-36.71v-75.49ZM566.57,403.68h-96.38l67.31,91.96-21.85,91.76c2.8.71,4.27-.74,6.45-1.72,12.58-5.67,81.56-47.44,86.9-46.98l89.38,48.74c2.86.6,2.99.15,2.48-2.46-3.03-15.33-23.86-81.9-21.2-90.85l66.93-90.46h-96.38l-42.72-92.79-40.93,92.79Z"/>
</svg>