 <svg
                className="flex justi"
                width="100"
                height="86"
                viewBox="0 0 100 86"
                fill="none"
                xmlns="http://www.w3.org/2000/svg"
              >
                <path
                  fill-rule="evenodd"
                  clip-rule="evenodd"
                  d="M49.8244 3.96985C50.9809 2.79002 52.3612 1.85279 53.8844 1.21305C55.4076 0.573304 57.0431 0.243905 58.6952 0.244141H87.0816C89.718 0.244141 92.0137 1.67765 93.2343 3.80308C93.4827 4.23243 93.575 4.72564 93.575 5.2224V13.3622L95.9523 65.8876C95.9523 68.2403 95.0177 70.4966 93.3541 72.1602C91.6905 73.8238 89.4342 74.7584 87.0816 74.7584H12.5673C10.2146 74.7584 7.95833 73.8238 6.29474 72.1602C4.63116 70.4966 3.69656 68.2403 3.69656 65.8876L6.07392 13.3622V5.2224C6.07392 4.72564 6.16618 4.23243 6.41456 3.80308C7.03665 2.72127 7.93302 1.82262 9.01325 1.19778C10.0935 0.572942 11.3194 0.244003 12.5673 0.244141H40.9537C44.431 0.244141 47.5713 1.67056 49.8244 3.96985Z"
                  fill="#B4ACBC"
                />
                <path
                  d="M55.9701 81.855H94.1782C97.1233 81.855 99.5042 79.4493 99.5042 76.5148V72.7714C99.5042 69.8369 97.1268 64.11 94.1782 64.11H5.47072C2.52918 64.1135 0.14827 69.8405 0.14827 72.7749V76.5503C0.14827 79.4848 2.52563 81.855 5.47427 81.855H43.6788C44.3017 82.9338 45.1975 83.8295 46.2763 84.4523C47.3551 85.0751 48.5788 85.403 49.8244 85.403C51.0701 85.403 52.2938 85.0751 53.3726 84.4523C54.4514 83.8295 55.3472 82.9338 55.9701 81.855Z"
                  fill="#0074BA"
                />
                <path
                  fill-rule="evenodd"
                  clip-rule="evenodd"
                  d="M5.47427 10.889H42.7279V14.4373H56.921V10.889H94.1746C97.1197 10.889 99.5006 13.2593 99.5006 16.1937V72.9665C99.5006 75.901 97.1233 78.3067 94.1746 78.3067H55.9701C55.3472 79.3855 54.4514 80.2812 53.3726 80.904C52.2938 81.5268 51.0701 81.8547 49.8244 81.8547C48.5788 81.8547 47.3551 81.5268 46.2763 80.904C45.1975 80.2812 44.3017 79.3855 43.6788 78.3067H5.47072C2.52918 78.3067 0.14827 75.9364 0.14827 73.002V16.1937C0.14827 13.2593 2.52563 10.889 5.47427 10.889ZM55.1469 72.9843C55.1469 74.3959 54.5861 75.7496 53.588 76.7478C52.5898 77.746 51.236 78.3067 49.8244 78.3067C48.4128 78.3067 47.0591 77.746 46.0609 76.7478C45.0628 75.7496 44.502 74.3959 44.502 72.9843C44.502 71.5727 45.0628 70.2189 46.0609 69.2207C47.0591 68.2226 48.4128 67.6618 49.8244 67.6618C51.236 67.6618 52.5898 68.2226 53.588 69.2207C54.5861 70.2189 55.1469 71.5727 55.1469 72.9843Z"
                  fill="#00A6ED"
                />
                <path
                  d="M39.1795 3.79248H13.6424C12.7662 3.79254 11.9036 4.00892 11.1311 4.4224C10.3586 4.83589 9.70016 5.43369 9.21417 6.16274L3.69656 14.4374V65.8877C3.69656 67.2993 4.25732 68.6531 5.25547 69.6512C6.25363 70.6494 7.60741 71.2102 9.01901 71.2102H90.6299C92.0415 71.2102 93.3952 70.6494 94.3934 69.6512C95.3916 68.6531 95.9523 67.2993 95.9523 65.8877V14.4374L90.4347 6.16274C89.9487 5.43369 89.2902 4.83589 88.5178 4.4224C87.7453 4.00892 86.8826 3.79254 86.0064 3.79248H60.4693V14.4374H39.1795V3.79248Z"
                  fill="#B4ACBC"
                />
                <path
                  d="M12.5673 3.79248H40.9537C43.3064 3.79248 45.5627 4.72707 47.2263 6.39066C48.8899 8.05425 49.8244 10.3106 49.8244 12.6632V71.2102L48.2384 68.038C47.6489 66.8583 46.7423 65.8662 45.6204 65.173C44.4985 64.4798 43.2057 64.1129 41.8869 64.1136H12.5673C11.6262 64.1136 10.7237 63.7397 10.0583 63.0743C9.39285 62.4089 9.01901 61.5063 9.01901 60.5653V7.34078C9.01901 6.39971 9.39285 5.49719 10.0583 4.83175C10.7237 4.16632 11.6262 3.79248 12.5673 3.79248ZM58.6952 3.79248H87.0816C88.0226 3.79248 88.9252 4.16632 89.5906 4.83175C90.256 5.49719 90.6299 6.39971 90.6299 7.34078V60.5653C90.6299 61.5063 90.256 62.4089 89.5906 63.0743C88.9252 63.7397 88.0226 64.1136 87.0816 64.1136H57.7584C56.5079 64.1136 55.2796 64.4441 54.1979 65.0716C53.1162 65.699 52.2195 66.6012 51.5986 67.6867V7.34078C53.2166 5.18696 55.7927 3.79248 58.6952 3.79248Z"
                  fill="#F3EEF8"
                />
              </svg>
