<?xml version="1.0" encoding="UTF-8"?>
<svg id="Layer_1" data-name="Layer 1" xmlns="http://www.w3.org/2000/svg" viewBox="0 0 1200 1200">
  <defs>
    <style>
      .cls-1 {
        fill: #fff;
      }
    </style>
  </defs>
  <path class="cls-1" d="M516.16,124.03c161.69-14.43,274.93,155.06,198.25,299.01-69.29,130.07-253.91,142.83-341.76,24.67-93.71-126.03-12.4-309.76,143.52-323.68Z"/>
  <path class="cls-1" d="M880.8,621.68c33.91-5.78,45.19,25.22,71.01,32.83,24.64,7.26,54.4-4.88,72.6,20.1,12.15,16.67,9.22,42.41,20.49,60.12,10.73,16.87,37.86,29.5,41.51,51.18,4.59,27.29-18.42,44.03-21.5,66.21-3.33,23.93,9.65,45.65-1.83,68.7-11.83,23.76-44.44,22.82-61.81,38.95-14.17,13.16-20.07,38.86-38.67,47.99-27.46,13.48-48.07-7.85-74.2-7.86-26.94-.02-49.26,24.38-77.46,5.08-15.94-10.91-22.66-35.91-37.42-47.22-16.4-12.57-45.69-15.7-57.1-33.59-14.52-22.76-.44-45.12-2.54-67.95-2.43-26.39-31.43-44.79-20.89-75.76,7.34-21.57,31.48-30.58,41.68-49,7.97-14.39,7.56-35.62,15.32-51.18,16.27-32.6,50.86-17.44,78.09-26.7,17.91-6.09,33.76-28.65,52.74-31.89ZM963.25,890.54c99.89-99.78-59.77-251.05-153.49-142.41-87.1,100.96,59.19,236.59,153.49,142.41Z"/>
  <path class="cls-1" d="M152.81,907.37c-19.75-4.26-10.97-35.36-8.08-48.39,25.69-115.96,110.41-219.64,217.4-269.74l86.77,151.01c23.32,9.37,32.91-18.83,47.5-30.38l-25.73,125.71,64.04,71.79H152.81Z"/>
  <path class="cls-1" d="M536.72,907.37l64.04-71.79-25.73-127.72c11.2,8.97,23.66,35.91,39.31,34.43,9.57-.91,14.81-13.49,19.46-20.99,24.33-39.29,44.85-90.16,70.51-126.97,1.39-2,2.47-4.22,4.98-5.09l31.59,16.22,31.61,21.76c-23.23,4.54-45.12,21.78-53.91,43.84-5.43,13.63-5.71,32.58-12.16,44.27-6.3,11.44-24.92,23.69-33.5,35.02-13.26,17.53-17.51,40.87-11.97,62,4.01,15.3,19.38,34.53,20.74,47.89,1.45,14.16-6.82,32.08-3.91,47.13h-141.07Z"/>
  <path class="cls-1" d="M460.16,697.77l-66.53-122.9c8.15-.69,20.79-9.48,28.07-7.1l90.63,70.54c-16.06,17.47-30.82,40.74-47.29,57.32-1.66,1.67-1.8,2.87-4.88,2.14Z"/>
  <path class="cls-1" d="M677.79,574.87l-66.37,121.67c-3.82,4.99-4.41-1.97-6.12-3.76-11.5-12.03-32.59-34.34-41.25-47.5-1.61-2.45-3.9-5.57-2.96-8.65,1.71-5.65,79.33-58.27,88.62-68.87,6.27-2.69,20.59,6.63,28.09,7.11Z"/>
  <path class="cls-1" d="M1062.71,1068.58c-3.45,3.5-50.49-9.09-59.11-7.82-5.07,1.68-23.36,42.07-29.4,48.9-1.6,1.81-3,1.93-5.03,1.09-3.76-1.55-27.19-58.07-31.41-66.33,25.33,1.78,48.82-9.74,64.43-29.28,4.09-5.12,18.09-32.4,23.2-31.18,3.3.79,26.35,53.61,29.6,61.1,1.63,3.74,9.84,21.37,7.71,23.52Z"/>
  <path class="cls-1" d="M756.07,984.32c1.72,1.03,17.41,28.6,21.64,33.72,15.19,18.38,37.5,27.52,61.29,26.38-2.27,8.47-27.68,65.66-31.26,66.49-2.7.63-4.53-2.43-5.89-4.16-5.29-6.72-23.4-44.49-25.62-45.9-20.92-.44-41.13,8.79-62.16,7.72l36.48-84.4c1.7-.37,4.09-.71,5.52.15Z"/>
  <path class="cls-1" d="M611.27,556.73l-75.21,58.14-73.87-57.16c-.1-2.77,14.33-4.26,17.38-4.75,43.16-6.9,89-4.51,131.7,3.77Z"/>
</svg>