<?xml version="1.0" encoding="UTF-8"?>
<svg id="Layer_1" data-name="Layer 1" xmlns="http://www.w3.org/2000/svg" viewBox="0 0 1200 1200">
  <defs>
    <style>
      .cls-1 {
        fill: #fff;
      }
    </style>
  </defs>
  <path class="cls-1" d="M990.03,552c.63.72,13.3,4.47,17.77,7.19,19.78,12.05,32.17,31.59,34.17,54.86l-.1,386.6c-4.19,32.26-28.89,58.46-61.78,62H269.81c-28.29-3.18-50.54-22.97-58.99-49.59-6.35-133.65-1.29-268.84-2.57-403.04,3.3-21.56,15.32-39.53,33.86-50.83,4.47-2.72,17.14-6.47,17.77-7.19,1.22-1.39-.17-16.04.29-20.36,4.88-45.83,29.84-50.33,70.52-48.87,100.46,3.61,201.73,28.27,295.31,63.11,92.31-35.45,193.6-60.02,293.12-63.22,40.56-1.31,65.75,3.02,70.63,48.98.46,4.32-.93,18.97.29,20.36ZM607.58,576.13c-73.01-27.11-149.16-46.2-226.95-54.27-15.61-1.62-34.58-3.78-49.95-4.34-5.76-.21-33.64-2.11-33.64,5.41v434.31c0,1.94,7.39,4.9,9.91,5.29,16.83,2.65,42.21.65,60.65,2.32,81.85,7.45,163.44,24.94,239.97,54.27v-443ZM642.33,1019.13c71.41-26.5,146.56-44.3,222.6-52.1,24.39-2.5,55.23-.9,78.02-4.5,2.51-.4,9.91-3.35,9.91-5.29v-434.31c0-6.33-22.8-5.54-27.13-5.4-24.68.81-51.18,3.74-75.74,6.76-71.15,8.77-140.49,27.8-207.66,51.84v443Z"/>
  <path class="cls-1" d="M347,293.83v30.4c0,.63,8.34,2.42,11.59,4.71,15.37,10.8,21.88,25.66,23.25,44.06.99,13.26,3.74,50.43-9.33,56.01-6.74,2.88-68.37,2.9-78.76,1.68-11.61-1.36-15.33-7.21-16.34-18.4-2.57-28.43-2.95-64.07,21.95-82.48,2.93-2.16,12.17-5.33,12.54-5.92,1.14-1.82,1.21-40.98.05-42.79-18.95-5.55-47.02-12.06-29.05-37.26l341.02-143.46c114.24,43.71,225.87,94.56,339.17,140.88,12.76,6.56,12.78,24.7,0,31.3l-139.64,47.24c-2.61,3.71,25.38,74.9,27.28,86.12.91,12.92-8.32,16.95-19,19.77-61.99,16.35-136.05,17.65-199.21,33.13-67.37-11.91-148.77-15.84-214.35-33.13-11.91-3.14-20.63-7.49-18.63-21.62l27.61-82.92-80.16-27.32ZM793.59,277.21c-4.67-4.85-28.72-15.97-36.24-19.14-73.99-31.21-175.32-32.75-250.78-5.54-17.47,6.3-63.83,21.73-53.69,45.1,9.5,21.91,37.75-.73,51.18-6.35,69.9-29.27,165.4-31.13,235.95-2.84,12.22,4.9,32.98,19.65,44.58,18.61,13.73-1.22,18.67-19.79,8.99-29.84ZM347,395.89c-.54-15.03,5.36-40.28-16.47-41.12-23.37-.9-18.04,25.47-18.27,41.12h34.75Z"/>
  <path class="cls-1" d="M893.78,711.41c5.74-.2,9.53-1.61,15.78.34,15.62,4.87,16.51,26.02,2.18,32.81-58.57,4.96-115.53,13.54-172.6,27.18-18.02,4.31-68.44,28.46-64.37-7.85,1.36-12.12,14.38-13.98,24.04-17.28,52.34-17.91,139.69-33.23,194.98-35.2Z"/>
  <path class="cls-1" d="M917.42,848.26c6.19,6.78,6.2,17.91,0,24.69-7.49,8.18-49.54,7.84-63.09,9.65-41.82,5.57-82.99,13.64-123.89,23.78-12.8,3.17-34.75,13.71-46.3,9.03-13.48-5.46-13.03-24.16.09-31.35,14.08-7.71,54.04-15.93,71.41-19.8,36.67-8.16,78.41-15.52,115.79-18.84,11.66-1.04,38.33-5.54,45.98,2.84Z"/>
  <path class="cls-1" d="M917.42,780.94c5.91,6.47,6.32,18.5.09,24.76-7.26,7.3-52.14,7.75-65.35,9.57-53.9,7.44-107.12,18.39-159.11,34.35-18.54,1.2-26.14-22.54-10.22-32.13,11.8-7.11,45.39-14.42,60.19-17.99,39.7-9.55,85.6-17.7,126.25-21.42,9.83-.9,28.24-3.35,37-2.27,3.68.45,8.71,2.43,11.15,5.11Z"/>
  <path class="cls-1" d="M332.49,848.26c7.65-8.38,34.32-3.88,45.98-2.84,39.86,3.55,83.75,11.54,122.73,20.59,16.22,3.76,51.2,10.77,64.47,18.05,8.97,4.92,11.19,10.45,8.87,20.6-5.37,23.43-40.23,5.4-55.08,1.72-40.92-10.15-82.06-18.12-123.89-23.78-13.08-1.77-57.28-1.85-63.84-9.98-5.56-6.89-5.16-17.87.76-24.35Z"/>
  <path class="cls-1" d="M332.4,715.72c2.26-2.27,10.11-4.81,13.52-5.07,7.01-.55,24.33,1.59,32.55,2.3,39.94,3.49,85.4,11.87,124.48,21.01,13.67,3.2,54.26,12.16,64.16,18.36,11.1,6.95,11.48,25.42-1.35,30.62-11.38,4.61-41.4-7.94-54.99-11.2-33.03-7.93-66.37-14.56-100.03-19.41-20.81-3-52.61-2.28-70.86-7.31-12.81-3.53-16.63-20.13-7.48-29.3Z"/>
  <path class="cls-1" d="M332.4,805.71c-7.82-7.85-5.48-25.32,5.8-28.81,10.53-3.26,50.43,2.04,63.89,3.64,25.78,3.07,54.53,8.09,79.99,13.39,15.71,3.27,79.89,17.68,88.72,26.38,10.69,10.53,1.85,31.03-13.93,29.33-51.99-15.97-105.21-26.91-159.11-34.36-13.16-1.82-58.08-2.27-65.35-9.57Z"/>
  <path class="cls-1" d="M332.49,622.42c5.04-5.53,13.16-5.36,20.02-5.12,21.91.75,74.56,5.83,94.49,11.93,19.36,5.92,20.01,34.45-7.77,33.93-31.07-.58-67.35-11.35-99.35-11.5-13.27-3.52-16.17-19.61-7.4-29.23Z"/>
  <path class="cls-1" d="M339.86,563.56c9.25-2.06,54.18,1.81,63.71,4.85,13,4.14,16.97,21.49,6.32,30.44-10.39,8.73-54.63-2.55-69.53-1.97-15.76-5.73-17.92-29.44-.5-33.32Z"/>
</svg>