<svg
              width="37"
              height="37"
              viewBox="0 0 37 37"
              fill="none"
              xmlns="http://www.w3.org/2000/svg"
            >
              <circle cx="18.4" cy="18.4" r="18.4" fill="white" />
              <path
                d="M36.8 18.5127C36.8 8.28817 28.5624 0 18.4023 0C8.23757 0.00229971 0 8.28817 0 18.515C0 27.7529 6.72896 35.411 15.5231 36.8V23.8641H10.8546V18.515H15.5277V14.433C15.5277 9.79448 18.2758 7.2326 22.4774 7.2326C24.4919 7.2326 26.5962 7.59365 26.5962 7.59365V12.1471H24.2758C21.9921 12.1471 21.2792 13.5752 21.2792 15.0401V18.5127H26.38L25.5659 23.8618H21.2769V36.7977C30.071 35.4087 36.8 27.7506 36.8 18.5127Z"
                fill="#3E56A0"
              />
            </svg>