<?xml version="1.0" encoding="UTF-8"?>
<svg id="Layer_1" xmlns="http://www.w3.org/2000/svg" version="1.1" viewBox="0 0 1200 1200">
  <!-- Generator: Adobe Illustrator 29.0.1, SVG Export Plug-In . SVG Version: 2.1.0 Build 192)  -->
  <defs>
    <style>
      .st0 {
        fill: #4c1178;
      }

      .st1 {
        fill: #d5df3e;
      }

      .st2 {
        fill: #fff;
      }

      .st3 {
        fill: #d5de3e;
      }

      .st4 {
        fill: #691b33;
      }

      .st5 {
        fill: #93d5f6;
      }

      .st6 {
        fill: #94d6f6;
      }

      .st7 {
        fill: #f9ad40;
      }

      .st8 {
        fill: #016936;
      }

      .st9 {
        fill: #f8ad41;
      }

      .st10 {
        fill: #e92228;
      }

      .st11 {
        fill: #691b34;
      }

      .st12 {
        fill: #955f8c;
      }

      .st13 {
        fill: #949078;
      }

      .st14 {
        fill: #681b35;
      }

      .st15 {
        fill: #d4de3f;
      }

      .st16 {
        fill: #0a4a6b;
      }

      .st17 {
        fill: #551460;
      }

      .st18 {
        fill: #faae40;
      }

      .st19 {
        fill: #4f5bed;
      }

      .st20 {
        fill: #c1816b;
      }

      .st21 {
        fill: #f9ae40;
      }

      .st22 {
        fill: #681b34;
      }

      .st23 {
        fill: #490f7d;
      }

      .st24 {
        fill: #ea2227;
      }
    </style>
  </defs>
  <g>
    <path class="st2" d="M1048.84,872.06l-2.97,2.4-3.8.25c-.36.02-.73.03-1.09.03-3.75,0-6.72-1.21-8.69-2.01-.26-.11-.52-.21-.76-.3-1.29-.33-2.37-.74-3.03-.99h-.03c-2.57-.61-5.41-1.23-7.94-1.77-27.6-5.87-56.14-11.11-85.59-15.72-12.97-2.03-26.11-3.94-39.44-5.73h-.01c-11.47-1.54-23.06-2.98-34.78-4.34-9.51-1.1-19.11-2.14-28.79-3.12-3.73-.38-7.47-.75-11.23-1.11-6.61-.63-13.24-1.24-19.92-1.82h-.01c-68.97-5.96-141.87-8.96-218.26-8.96-22.89,0-46.52.27-70.22.8-61.11,1.36-119.74,4.07-175.54,8.14h-.01c-13.09.95-26.03,1.98-38.81,3.08-5.53.48-11.03.97-16.5,1.47-26.2,2.41-51.7,5.14-76.46,8.18-12.63,1.55-25.07,3.18-37.31,4.89-2.92.41-6.4.96-9.77,1.49l-2.52.4c-.93.15-1.95.32-2.96.49-.92.15-1.83.31-2.72.45-.47.08-1.09.22-1.74.36-.96.2-1.95.41-2.9.58l-2.93.51-2.83-.9c-6.24-2-8.71-7.09-8.94-11.18-.23-4.09,1.66-9.44,7.67-12.15l.8-.36.85-.24c1.38-.39,2.71-.63,3.88-.83.51-.09,1.02-.17,1.49-.28,1.02-.23,2.04-.43,3.06-.61.62-.12,1.25-.23,1.87-.37,1.79-.4,3.57-.73,5.29-1.06,1.45-.28,2.91-.55,4.34-.87,108.51-23.71,206.38-43.99,305.35-52.05,28.39-2.32,57.37-3.94,83.31-5.27,3.29-.16,6.52-.32,9.7-.48,11.48-2.37,23.37-3.58,35.36-3.58,7.91,0,15.82.53,23.53,1.59,3.42-.06,6.88-.1,10.34-.1.65-.01,1.29-.01,1.94-.01,134.37,0,277.27,37.68,399.32,74.53.82.25,1.85.48,2.94.72,1.45.33,3.09.69,4.81,1.22.25.08.75.19,1.09.26.9.19,2.02.44,3.19.85l.12.04c3.96,1.43,11.35,4.08,12.66,11.86.74,4.37-.95,8.82-4.41,11.62Z"/>
    <path class="st2" d="M629.1,794.84l-12.76.24c-19.28.36-37.68.98-56.26,1.9l-13.49.68,1.66-24.12c3.29-.16,6.52-.32,9.7-.48,11.48-2.37,23.37-3.58,35.36-3.58,7.91,0,15.82.53,23.53,1.59,3.42-.06,6.88-.1,10.34-.1l1.92,23.87Z"/>
    <path class="st2" d="M706.35,481.61c-.09.13-.19.27-.31.42l-.05-.09.36-.33Z"/>
    <path class="st2" d="M460.11,470.71c-.02.1-.04.21-.06.31l-.25,1.35v-1.67c.1,0,.21,0,.31,0Z"/>
    <path class="st2" d="M838.29,375.74l.59-12.32-9.13-.18c.58-2.57.76-5.31.47-8.13-1.28-12.57-11.24-21.69-23.68-21.69-1.46,0-2.97.12-4.47.37-.87.14-1.73.33-2.56.56.31-11.06-2.74-22.71-9.12-34.84-.78-1.49-3.15-5.42-4.9-8.19-2.35-3.73-4.18-6.64-6.38-8.64,1.15-3.01,1.78-6.32,1.78-9.83,0-6.01-2.02-11.65-5.7-15.87-4.09-4.7-9.99-7.4-16.7-7.66.38-4.36.41-8.52.12-12.3l-.85-11.09h-61.51c-4.19,0-11.04,1.91-16.87,3.92,1.21-5.5,1.58-11.03,1.03-16.34-1.52-14.71-9.89-27.07-23.55-34.79l-.53-.3c-4.27-2.45-7.86-4.33-11.92-4.33h-.3c-9.83.23-14.45,10.33-16.67,15.19-.86,1.88-2.09,4.84-3.1,7.82-10.96-11.37-25.44-22.12-44.04-32.75l-9.27-5.31-6.34,8.61c-4.97,6.75-9.93,14.62-14.43,23.25-.17-.39-.34-.77-.52-1.16-2.29-4.96-7.04-15.3-18.24-15.3-6.2,0-11.18,3.35-16.58,7.41-11.61,8.71-18.05,20.8-18.62,34.98-.17,4.06.18,8.19.99,12.31-4.56-1.54-9.49-2.61-14.81-3.15-3.81-.38-7.98-.57-12.74-.57-5.11,0-10.3.21-15.32.42-5,.2-9.72.4-14.34.4-3.11,0-5.83-.09-8.32-.28l-12.88-.95v27.69c-1.66.03-3.36.22-5.06.57-11.74,2.4-19.34,13.26-18.07,25.83.48,4.83,2.23,9.14,4.88,12.63-10.57,14.58-15.68,29.54-15.34,43.68-2.3-.74-4.76-1.13-7.33-1.13-1.76,0-3.58.19-5.39.56-12,2.43-19.8,13.31-18.54,25.86.08.83.2,1.64.37,2.43-1.5,0-2.96.02-4.4.05l-12.54.26.82,12.52c3.32,50.77,16.86,79.58,33.79,95.25-6.86,1.93-13.16,5.34-18.64,10.12-2.45,2.14-8.19,7.14-8.16,14.89.03,7.8,5.75,12.73,9.17,15.68,6.33,5.46,14.09,8.29,23.65,8.65-7.17,4.43-10.36,8.04-11.52,12.68-1.16,4.68.34,9.12,4.15,17.3,2.06,4.43,4.46,9.09,5.5,10.86,14.75,25.03,35.96,37.2,64.85,37.2,1.27,0,2.55-.02,3.83-.07-.41,1.43-.63,2.95-.63,4.51,0,9.09,7.36,16.45,16.44,16.45,1.23,0,2.42-.13,3.57-.39v5.99c5.01,0,9.61-1.67,13.34-4.55,4.81,14.42,13.48,29.53,31.92,34.93,6.72,1.97,13.43,2.44,19.34,2.86,4.92.35,9.58.68,13.66,1.79l13.03,7.31-7.32,106.12c3.29-.16,6.52-.32,9.7-.48,11.48-2.37,23.37-3.58,35.36-3.58,7.91,0,15.82.53,23.53,1.59,3.42-.06,6.88-.1,10.34-.1l-2.9-35.96c-.25-20-1.9-40.13-3.5-59.6-.21-2.54-.42-5.1-.62-7.67l1.01-.47c2.9-1.34,5.23-2.78,7.29-4.04,2.71-1.66,4.5-2.76,6.91-3.37,5.51-1.4,10.89-1.8,16.09-2.19,15.24-1.14,32.51-2.43,44.52-28.56.5-1.09,1.34-3.15,2.27-5.67,3.73,2.71,8.2,4.27,12.99,4.27,4.43,0,8.77-1.31,12.91-3.89,8.84-5.51,13.01-15.23,10.95-25.17h.45c23.42,0,41.48-7.74,55.22-23.67,2.74-3.18,7.7-10.51,11.52-17.05,7.99-13.67,8.86-19.7,7.71-24.55-1.08-4.57-4.17-8.24-10.87-12.54,1.72-.03,3.39-.15,5.01-.33,7.2-.81,25.73-10.11,28.03-21.74,2.16-10.95-8.67-17.92-12.75-20.55-4.07-2.61-10.24-5.89-14.37-7.02,19.62-18.11,31.1-50.52,33.24-95.46ZM435.8,294.52c-.1-.12-.19-.24-.28-.36.11.1.22.2.33.3-.01.02-.03.04-.05.06ZM459.8,470.7c.1,0,.21,0,.31,0-.02.1-.04.21-.06.31l-.25,1.35v-1.67ZM706.04,482.03l-.05-.09.36-.33c-.09.13-.19.27-.31.42ZM732.28,492.2h-.01c.04-.08.08-.16.12-.24l-.11.24Z"/>
    <path class="st2" d="M435.85,294.46s-.03.04-.05.06c-.1-.12-.19-.24-.28-.36.11.1.22.2.33.3Z"/>
    <path class="st2" d="M460.11,470.71c-.02.1-.04.21-.06.31l-.25,1.35v-1.67c.1,0,.21,0,.31,0Z"/>
    <path class="st2" d="M706.35,481.61c-.09.13-.19.27-.31.42l-.05-.09.36-.33Z"/>
    <path class="st2" d="M732.39,491.96l-.11.24h-.01c.04-.08.08-.16.12-.24Z"/>
    <path class="st2" d="M435.85,294.46s-.03.04-.05.06c-.1-.12-.19-.24-.28-.36.11.1.22.2.33.3Z"/>
    <path class="st2" d="M336.73,837.81c-13.09.95-26.03,1.98-38.81,3.08,4.62-2.12,9.71-3.53,15.18-4.19,3.07-.37,6.11-.56,9.04-.56,5.14,0,10.02.56,14.59,1.67Z"/>
    <path class="st2" d="M471.04,945.91c-1.19-.09-2.34-.2-3.4-.32.48-.44.98-.85,1.51-1.23.65.46,1.29.98,1.89,1.55Z"/>
    <path class="st2" d="M435.85,294.46s-.03.04-.05.06c-.1-.12-.19-.24-.28-.36.11.1.22.2.33.3Z"/>
    <path class="st2" d="M702.24,993.78c-1.91-3.61-3.21-8.55-2.41-13.28-1.74-1.72-3.81-2.94-6.1-3.58-2.02-.57-4.25-.84-7.01-.84-.97,0-1.96.04-2.94.09v-19.85c0-8.23-6.87-14.68-15.64-14.68-6.14,0-11.55,3.2-14.52,8.22-1.72-2.46-3.76-4.48-6.01-5.98-2.38.88-4.96,1.37-7.64,1.37-3.6,0-6.91-.85-9.77-2.43-2.22,1.18-4.53,3.06-6.59,6-2.83-4.74-7.74-7.71-13.45-7.71-5.31,0-10.02,2.43-12.85,6.13-.77-.83-1.54-1.56-2.34-2.21-2.37-1.93-5.16-3.21-8.07-3.74,7.09-2.97,13.07-7.43,17.29-13.07,6.6-8.85,8.35-20.09,4.92-31.66-1.7-5.75-4.5-10.16-7.93-13.59,2.13-1.99,3.75-4.48,4.75-7.36.24-.68.43-1.36.58-2.05,1.75-7.62-1.11-15.57-4.6-20.74-1.83-2.7-4.08-5.13-6.69-7.23-7.57-6.15-18.12-9.64-29.82-9.64-12.64,0-24.35,4.14-32.24,11.25-2.29-5.44-7.07-9.47-13.24-10.63l-1.57-.29-1.59.13c-2.41.19-5.05.28-8.09.28-4.7,0-9.54-.22-14.66-.45-5.16-.23-10.49-.48-15.72-.48-4.79,0-8.97.21-12.77.63-8.37.94-14.38,5.3-17.18,12.28-6.11-7.06-15.1-11.43-25.52-12.32-5.09-.43-13.59-.72-21.64-.72-5.96,0-14.17.16-19.41.89-8.52,1.19-14.97,6.88-16.82,14.84l-.3,1.32v3.4c-1.04-1.4-2.14-2.74-3.31-4.02-6.49-7.08-14.85-11.9-24.6-14.25h-.01c-13.09.95-26.03,1.98-38.81,3.08-4.69,2.14-8.9,5.01-12.55,8.57-.79-2.66-2.13-5.08-3.95-7.1-26.2,2.41-51.7,5.14-76.46,8.18-.51,1.72-.88,3.65-1.07,5.8-1.14,12.64-.61,26.05-.1,39.02.42,10.71.82,20.83.34,30.38l-.04.86.08.86c.69,7.38,5.45,13.44,12.05,16.26-4.05,2.76-6.83,7.45-7.46,13.2-.94,8.6-.8,25.36-.07,34.04l.04.45c.18,2.55.55,7.86,4.6,11.96,2.98,3.03,7.04,4.7,11.41,4.7,3.3,0,6.39-.91,8.99-2.51.31.19.63.36.96.53,3.01,1.53,6.05,1.85,8.07,1.85,5.37,0,9.95-2.15,12.78-5.59.56.56,1.14,1.09,1.74,1.58,3.17,2.6,7.32,4.04,11.67,4.04,5.92,0,10.92-2.58,13.82-6.64,2.92,3.53,7.68,5.74,13.26,5.74,5.87,0,10.84-2.45,13.7-6.31,1.94,2.62,5.71,6.43,11.25,6.43h27.84c1.94,0,3.89-.45,5.68-1.33,2.05.78,4.34,1.21,6.8,1.21,5.68,0,10.52-2.3,13.41-5.94,3.3,3.64,7.58,6.5,13.35,6.5h.01c2.42-.01,4.81-.57,7.04-1.64,2.27,1.32,4.89,2.05,7.7,2.05,5.08,0,9.75-2.42,12.75-6.19,2.91,3.1,6.1,5.22,9.99,5.94,1.34.25,2.65.38,3.89.38,1.48,0,4.4-.22,7.38-1.71.65.3,1.32.55,2.01.77,1.58.49,3.19.73,4.79.73,8.24,0,12.6-5.67,14.91-10.4.1,0,.21-.01.31-.01,1.9,4.1,5.03,8.4,10.7,10.02,1.63.46,3.25.69,4.84.69,3.46,0,6.74-1.14,9.36-3.19,2.58,1.51,5.61,2.37,8.78,2.37,5.8,0,10.76-2.82,13.45-7.11,2.9,4.81,7.93,7.88,13.62,7.88,4.82,0,9.95-2.45,13.17-7.19,5.6,4.54,12.85,7.16,20.96,7.16,6.8,0,13.02-1.85,18.11-5.13,2.9,3.21,7.03,5.14,11.61,5.14,5.1,0,9.67-2.4,12.61-6.27,2.88,3.05,6.05,5.15,9.94,5.87,1.34.25,2.65.38,3.89.38,1.38,0,4.02-.19,6.78-1.43,1.97.86,4.15,1.32,6.39,1.32s4.68-.48,6.99-1.43c4.49-1.85,6.93-5.5,8.43-9.1.41.97.91,1.96,1.52,2.95,3.06,4.91,7.97,7.73,13.47,7.73,1.5,0,3.04-.21,4.56-.64.42-.11,1.72-.52,3.31-1.42.11.05.22.1.33.15,3.22,1.39,8.83,2.09,16.67,2.09,11.52,0,22.62-1.32,25.86-10.92.05-.14.09-.28.13-.42-.78-1.03-1.47-2.12-2.08-3.27ZM279.23,941.92h-4.25c-1.65-.49-3.45-.76-5.34-.76-5.51,0-10.19,2.27-13.01,5.88-1.34-1.38-2.77-2.56-4.33-3.49-2.52-1.5-5.44-2.29-8.44-2.29-3.23,0-6.54.94-9.37,2.64-.27-.19-.54-.37-.82-.54,1.67-.8,3.21-1.84,4.6-3.08,2.72-2.43,6.9-9.98,6.9-14.67v-18.24h19.19c2.43,0,4.71-.55,6.74-1.56,3.45,16.93,14.96,30.03,30.73,36.11h-22.6ZM370.48,941.52c-9.03,0-11.55.48-12.37.64-1.05.2-2.42.62-3.89,1.3-1.89-.99-4.04-1.54-6.36-1.54h-5.56c8.42-3.24,16.23-8.63,22.1-16.32v1.79s.19,1.07.19,1.07c.98,5.49,3.9,10.06,7.98,13.07-.81-.01-1.53-.01-2.09-.01ZM416.87,947.24c-.77-.83-1.54-1.56-2.33-2.21-3.21-2.61-7.15-4.05-11.11-4.05-4.22,0-8.04,1.58-10.92,4.24-.48-.31-.99-.6-1.5-.86,7.33-2.4,12.95-8.74,14.28-16.81.79-4.8.67-9.87.4-14.87,1.51,2.14,3.19,5.09,5.3,9.04,2.57,4.8,5.23,9.77,8.84,14.19,1.81,2.23,3.99,4.11,6.41,5.57-3.86.79-7.18,2.89-9.37,5.76ZM443.52,949.42c-.9-1.66-2.05-3.12-3.39-4.33,5.16-.25,9.62-2.26,12.8-5.48.68.62,1.43,1.21,2.24,1.75-4.6.98-8.77,3.83-11.65,8.06ZM467.64,945.59c.48-.44.98-.85,1.51-1.23.65.46,1.29.98,1.89,1.55-1.19-.09-2.34-.2-3.4-.32ZM532.95,947.69c-.47-.67-1-1.34-1.63-1.97-1.37-1.39-2.91-2.5-4.56-3.32,3.13-1.78,5.68-4.19,7.39-7.07,3.29,2.67,7.09,4.88,11.28,6.53-4.76,1.05-8.96,3.05-12.48,5.83ZM571.97,946.16c-.47-.33-.95-.63-1.44-.91.9-.07,1.8-.17,2.68-.29-.44.37-.85.78-1.24,1.2Z"/>
    <path class="st2" d="M281.42,842.36c-26.2,2.41-51.7,5.14-76.46,8.18,3.01-10.24,11.03-13.41,17.74-14.15,3.42-.38,7.17-.56,11.47-.56,4.68,0,9.43.21,14.02.42,4.53.21,8.81.4,12.95.4,2.65,0,4.95-.08,7.05-.24l1.95-.16,1.9.48c3.78.94,6.99,2.94,9.38,5.63Z"/>
    <path class="st2" d="M687.57,858.25c-1.56,9.56-9.61,16.49-19.15,16.49h-7.67v51.83c0,7.71-5.53,14.52-13.14,17.31-2.38.88-4.96,1.37-7.64,1.37-3.6,0-6.91-.85-9.77-2.43-5.05-2.78-8.7-7.77-10.05-14.23l-.24-1.17-.36-52.68h-7.75c-1.54,0-3.4-.46-5.29-1.18,1.75-7.62-1.11-15.57-4.6-20.74-1.83-2.7-4.08-5.13-6.69-7.23,3.46-5.11,9.53-8.61,16.39-9.24,4.37-.4,9.14-.6,14.58-.6,6.26,0,12.65.26,18.82.51,6.19.25,12.03.48,17.76.48,2.82,0,5.35-.06,7.73-.18l2.26-.11,2.15.72c8.99,3.02,14.2,11.69,12.66,21.08Z"/>
    <path class="st2" d="M860.71,843.88c-9.51-1.1-19.11-2.14-28.79-3.12,3.63-2.92,8.26-4.68,13.29-4.68,3.91,0,7.72,1.11,11,3.22,1.24.8,2.92,2.48,4.5,4.58Z"/>
    <path class="st2" d="M960.01,945.37c-3.4.57-8.37.85-13.33.99,3.01,2.8,4.88,6.66,4.88,10.92v19.19h6.71c8.07,0,13.74,7.41,14.36,14.26.64,7.04-3.55,15.02-14.36,16.99-2.93.53-7.73.72-11.24.72-9.6,0-19.02-.88-24.18-6.6-5.41,4.01-12.24,6.31-19.81,6.31-9.11,0-17.16-3.23-22.93-8.7-5.72,5.49-13.68,8.73-22.68,8.73-7.27,0-13.85-2.11-19.17-5.82-2.92,3.51-7.33,5.63-12.25,5.63-1.73,0-3.46-.26-5.12-.76-1.65-.5-3.23-1.24-4.64-2.19-1.41-.95-2.62-2.08-3.62-3.36-2.82,3.84-7.6,6.36-13.03,6.36-4.66,0-8.86-1.86-11.91-5.07-5,3.34-11.19,5.2-17.86,5.2s-13.34-2-18.5-5.63c-.83-.58-1.63-1.22-2.4-1.91-5.28,4.83-12.79,7.63-20.76,7.63-9.83,0-18.64-4.21-23.85-11.21,1.2-3.92.68-8.42-1.43-12.42-.84-1.58-1.87-2.97-3.06-4.13.36-2.12,1.14-4.2,2.47-6.1-3.29-7.03-2.94-14.61.96-20.87,2.52-4.04,6.45-7.32,11.17-9.54-6.37-2.42-11.16-8.01-12.7-15.4-2.92-14.01-1.42-59.14-.69-69.16,1.52-20.99,14.62-23.26,20.18-23.26,2.45,0,5.08.42,7.81,1.26,6.14,1.89,13.3,9.8,13.3,17.15v15.36h11.51v-13.44c0-11,9.68-20.3,21.14-20.3,6.49,0,13.31,3.16,17.15,10.01.69-1.3,1.54-2.59,2.6-3.75,1.79-1.96,3.83-3.51,6.03-4.63h.01c6.68.58,13.31,1.19,19.92,1.82,2.46,1.79,4.61,4.14,6.26,6.87,1.29-2.21,2.98-4.16,4.97-5.76,9.68.98,19.28,2.02,28.79,3.12,2.36,3.14,4.47,7.22,4.47,10.7v52.79h25.91c.75,0,1.48.07,2.18.21.02-7.23.3-14.53.58-21.69.44-11.08.85-21.56.34-31.43l-.13-2.35.77-2.21c.2-.57.42-1.13.66-1.68h.01c13.33,1.79,26.47,3.7,39.44,5.73.2,1.14.3,2.31.3,3.51v49.91h24.95c7.06,0,14.19,7.59,15.69,10.83,2.56,5.58,2.49,11.46-.22,16.57-2.95,5.57-8.66,9.44-15.65,10.6Z"/>
    <path class="st2" d="M934.94,853.95c-12.97-2.03-26.11-3.94-39.44-5.73,3.25-7.38,10.27-12.04,18.32-12.04,10.61,0,19.44,7.7,21.12,17.77Z"/>
    <path class="st2" d="M820.69,839.65c-6.61-.63-13.24-1.24-19.92-1.82,2.64-1.35,5.51-2.06,8.45-2.06,4.15,0,8.11,1.43,11.47,3.88Z"/>
    <path class="st2" d="M704.32,997.05c-.78-1.03-1.47-2.12-2.08-3.27-1.91-3.61-3.21-8.55-2.41-13.28,1.19,1.16,2.22,2.55,3.06,4.13,2.11,4,2.63,8.5,1.43,12.42Z"/>
    <path class="st2" d="M471.04,945.91c-1.19-.09-2.34-.2-3.4-.32.48-.44.98-.85,1.51-1.23.65.46,1.29.98,1.89,1.55Z"/>
    <path class="st2" d="M647.61,943.88c-2.38.88-4.96,1.37-7.64,1.37-3.6,0-6.91-.85-9.77-2.43,3.01-1.62,5.86-1.97,7.77-1.97,3.39,0,6.7,1.07,9.64,3.03Z"/>
    <path class="st2" d="M460.11,470.71c-.02.1-.04.21-.06.31l-.25,1.35v-1.67c.1,0,.21,0,.31,0Z"/>
    <path class="st2" d="M471.04,945.91c-1.19-.09-2.34-.2-3.4-.32.48-.44.98-.85,1.51-1.23.65.46,1.29.98,1.89,1.55Z"/>
    <path class="st2" d="M704.32,997.05c-.78-1.03-1.47-2.12-2.08-3.27-1.91-3.61-3.21-8.55-2.41-13.28,1.19,1.16,2.22,2.55,3.06,4.13,2.11,4,2.63,8.5,1.43,12.42Z"/>
    <path class="st2" d="M435.85,294.46s-.03.04-.05.06c-.1-.12-.19-.24-.28-.36.11.1.22.2.33.3Z"/>
    <path class="st2" d="M732.39,491.96l-.11.24h-.01c.04-.08.08-.16.12-.24Z"/>
    <path class="st2" d="M706.35,481.61c-.09.13-.19.27-.31.42l-.05-.09.36-.33Z"/>
    <path class="st2" d="M732.39,491.96l-.11.24h-.01c.04-.08.08-.16.12-.24Z"/>
    <path class="st2" d="M706.35,481.61c-.09.13-.19.27-.31.42l-.05-.09.36-.33Z"/>
  </g>
  <g>
    <path class="st8" d="M1041.3,862.73c-2.32.15-4.73-1.42-6.72-1.91-1.19-.29-2.2-.8-2.88-.96-2.78-.66-5.85-1.32-8.64-1.92-165.33-35.17-342.27-44.02-511.04-40.27-114.34,2.54-232.61,10.01-346.03,25.88-3.79.53-8.45,1.28-12.48,1.91-1.87.3-3.86.65-5.76.96-1.36.23-3.16.67-4.8.96-.84-.27-.82-.59,0-.96,1.37-.39,3.25-.6,4.8-.96,1.57-.36,3.21-.6,4.8-.95,3.16-.7,6.43-1.23,9.6-1.92,99.43-21.73,202.18-43.55,303.77-51.82,31.08-2.54,62.43-4.22,93.57-5.77,18.41-3.92,38-4.57,56.63-1.92,135.57-2.51,279.7,34.9,408.86,73.9,2.5.76,5.18,1.15,7.68,1.92,1.33.42,2.9.63,3.84.96.86.31,5.79,2.07,4.8,2.87Z"/>
    <path class="st4" d="M595,344.47c3.01,11.03,4.7,23.62,5.75,35.04,4.9,53.23,2.17,108.83-.03,162.15-.43,10.39-.13,20.86-.92,31.24,1.64.08,3.21.19,4.78-.5,1.67-.75,10.34-9.83,13-11.95,32.85-26.07,72.8-47.5,103.15-75.85,1.36-1.04,1.68-.4.96,1.92-15.73,33.45-64.82,66.43-90.72,93.07-8.07,8.3-25.76,34.31-25.44,45.57,1.05,36.66,6.33,73.59,6.76,110.41l3.83,47.52c-19.01.35-37.65.97-56.63,1.92l11.34-164.4c-22.29-28.38-45.98-55.83-65.11-86.56-8.5-13.66-17.74-28.83-21.09-44.65-.37-1.7-.05-2.34.96-1.92,16.83,32.23,58.26,69.21,86.88,92.11,1.11.89,6.34,5.41,7.17,4.82l14.41-239.94c.27-.84.59-.83.96,0Z"/>
    <path class="st8" d="M574.36,174.76c31.71,18.12,67.37,45.75,63.82,86.67-1.97,22.7-13.95,55.43-34.61,67.12-8.32,4.71-9.29,3.63-17.84-.24-64.37-29.1-44.97-107.94-11.37-153.55Z"/>
    <path class="st8" d="M612.29,447.16c-5.32-42.29-1.7-103.12,40.28-126.23,17.07-9.39,40.86-10.7,60.04-9.14,9.07.74,7.81,5.92,8.96,14.08,10.06,71.73-59.66,63.78-95.39,102.08-5.4,5.79-9.14,12.96-13.9,19.21Z"/>
    <path class="st18" d="M565.24,447.16c-7.78-11.47-15.67-21.77-26.95-30.15-28.98-21.54-79.23-26.37-83.29-70.27-1.05-11.36.78-22.73,2.89-33.82,31.35-3.43,63.58-2.38,85.26,23.41,25.81,30.7,24.46,73,22.09,110.82Z"/>
    <path class="st6" d="M826.31,375.17c-2.31,48.55-17.58,110.5-79.89,99.56-2.8-.49-16.21-4-17.51-5.52-3.68-4.3-3.41-37.48-2.18-44.36,7.9-43.98,63.04-50.41,99.58-49.68Z"/>
    <path class="st8" d="M350.26,375.18c35.52-.74,90.92,5.2,99.53,47.79,2.94,14.53,1.13,31.38-1.54,45.88-2.12,2.8-21.34,6.77-25.54,7.09-56.71,4.3-69.56-56.57-72.45-100.76Z"/>
    <path class="st18" d="M518.22,575.76c-47.84,3.06-100.57,32.3-131.65-20.46-1.6-2.72-8.86-17.1-8.35-19.16.97-3.9,20.44-13.13,24.87-14.56,46.22-14.97,89.42,19.13,115.13,54.18Z"/>
    <path class="st8" d="M658.35,575.76c26.76-35.05,68.68-69.5,115.92-54.01,4.36,1.43,23.11,10.37,24.06,14.38,1.22,5.16-12.72,26.46-16.64,31.01-31.87,36.94-82.85,10.39-123.34,8.62Z"/>
    <path class="st24" d="M746.65,237.93c1.61,21.08-8.27,53.66-30.92,59.77-18.96,5.12-38.58-.64-56.61,3.85-5.96,1.49-11.74,4.72-14.68,10.28-1.14-23.35,8.24-55.94,30.54-67.37,4.02-2.06,17.21-6.54,21.29-6.54h50.39Z"/>
    <path class="st6" d="M481.27,237.93c37.84,3.83,51.48,40.51,52.3,73.9-4.14-5.14-8.58-8.6-15.15-10.27-22.3-5.69-53.89,6.01-71.72-12.74-6.39-6.72-15.81-26.02-15.81-35.05v-15.84c16.14,1.2,34.52-1.61,50.39,0Z"/>
    <path class="st24" d="M667.77,428.13c.66.39,6.26,11.75,7.06,13.58,12.16,28.03,9.62,41.25-8.01,65.27-11.24,15.31-28.12,31.33-46.87,36.14,13.87-19.46,2.64-44.72,3.79-66.74.77-14.66,5.71-27.14,17.4-36.34,3.68-2.89,23.12-13.98,26.62-11.91Z"/>
    <path class="st6" d="M556.61,542.18c1.26,1.25.73,1.59-.96.96-17.75-6.17-32.12-19.05-43.57-33.69-18.48-23.64-22.58-37.48-10.63-66.09,1.37-3.28,6.51-15.09,9.59-15.4,4.36-.44,18.83,7.85,22.84,10.75,39.71,28.74,1.9,77.72,22.73,103.48Z"/>
    <path class="st4" d="M393.45,925.61c-1.59,9.66-15.23,10.82-17.05.73l.25-72.27c.78-3.37,3.4-5.19,6.79-5.67,8.36-1.17,29.59-.85,38.36-.1,15.32,1.31,24.95,12.57,22.29,28.12-1.85,10.8-9.8,13.59-18.51,17.02-.88.35-2.99.08-1.41,1.91.22.25,4.34,2.18,5.65,3.48,4.37,4.34,16.41,22.05,16.32,27.75-.13,8.4-11.58,8.39-17.01,1.73-10.37-12.71-13.73-36.39-35.68-31.99-1.03,8.88,1.39,20.79,0,29.27ZM393.45,883.86h21.59c.31,0,5.38-1.42,5.99-1.69,8.5-3.9,7.99-16.8-.66-19.95-.56-.2-5.96-1.39-6.28-1.39h-20.64v23.03Z"/>
    <path class="st4" d="M314.54,848.61c32.21-3.87,50.95,16.51,48.18,48.18-4.3,49.17-74.76,47.83-80.36,3.61-3.03-23.92,5.43-48.58,32.17-51.79ZM317.4,862.03c-23.95,3.57-24.67,49.2-3.34,56.59,38.8,13.44,44.53-62.72,3.34-56.59Z"/>
    <path class="st4" d="M475.99,861.78v20.16h36.95c.27,0,4.86,1.95,5.06,2.14,2.76,2.7,1.03,11.3-3.14,11.3h-38.87v23.99h42.71c.25,0,4.13,2.15,4.4,2.56,4.49,7-1.79,11.17-8.25,11.82-10.68,1.08-35.39,1.15-45.95-.09-5.47-.65-10.45-2.71-10.23-8.97,1.87-21.65-2.34-47.03.02-68.21.58-5.19,2.98-7.59,8.16-8.16,15.78-1.76,34.73,1.34,50.87.05,7.8,1.46,5.29,13.41.02,13.41h-41.75Z"/>
    <path class="st4" d="M730.33,926.57c-1.63,8.2-14.69,9.9-16.85-.43-2.39-11.43-1.42-52.72-.47-65.84.58-8.05,2.97-14.33,12.49-11.4,1.73.53,4.83,4.26,4.83,5.68v27.35h35.51v-25.43c0-8.86,16.02-13.46,17.33.91,2,21.94-1.26,47.41-.47,69.7-2.62,9.67-16.86,7.34-16.86-2.46v-29.27h-35.51c-1.25,9.07,1.68,22.73,0,31.19Z"/>
    <path class="st8" d="M736.09,386.7c8.96-14.4,2.8-31.56,3.8-47.55.71-11.39,3.23-21.74,10.58-30.69,2.43-2.96,17.64-17.29,20.56-16.85.8.12,7.8,11.68,8.76,13.5,21.82,41.48-5.71,67.12-42.73,81.6-.29.5-.61.49-.96,0Z"/>
    <path class="st24" d="M449.12,388.6c-2.56,1.96-31.14-16.77-35.01-20.17-25.74-22.67-19.14-51.96.92-75.62,14.26,11.12,26.39,20.74,29.17,39.77s-4.72,39.1,4.92,56.02Z"/>
    <path class="st4" d="M552.11,874.92c9.08,10.07,39.27,4.02,45.5,25.04,10.54,35.59-49.15,44.79-62.31,18.16-2.07-4.18-4.32-13.07,1.17-15.53,11.86-5.31,11.24,12.97,21.37,16.99,17.91,7.09,33.64-12.21,17.37-20.25-12.6-6.23-37.17-4.64-40.44-23.86-5.06-29.77,43.73-35.87,57.2-15.93,3.32,4.91,5.44,13.92-1.71,16.21-9.67,3.1-9.88-9.52-16.41-13.45-11.02-6.63-30.68,2.72-21.74,12.63Z"/>
    <path class="st18" d="M616.12,638.63c3.3-29.38,30.53-44.94,58.1-42.74,2.7.22,15.52,2.66,17.16,3.76,2.46,1.65-4.74,21.07-6.3,24.45-12.62,27.46-29.57,18.29-52.66,24.12-6.72,1.7-10.31,5.38-16.31,8.17.46-5.68-.63-12.19,0-17.76Z"/>
    <path class="st24" d="M560.45,656.39l-13.21-7.41c-11.13-3.49-23.11-1.75-34.32-5.03-19.18-5.61-24.52-26.82-28.29-44.17,41.19-15.08,82.76,10.96,75.82,56.61Z"/>
    <path class="st4" d="M233.17,861.78v21.11h31.19c5.46,0,5.46,12.48,0,12.48h-31.19v30.23c0,.55-2.2,5.11-2.9,5.74-4.67,4.18-13.51,1.79-14.15-5,1.1-22.14-2.24-47.12-.28-68.93.51-5.65,2.29-8.44,8.19-9.1,14.01-1.55,30.78,1.18,45.11.05,7.67,1.92,5.89,13.41-.94,13.41h-35.03Z"/>
    <path class="st4" d="M648.75,862.74v63.82c0,6.65-14.44,11.11-16.85-.43l-.43-63.4h-19.68c-.55,0-5.13-2.21-5.74-2.9-4.78-5.48.3-10.96,6.65-11.54,18.44-1.69,39.66,1.18,58.39.25,7.84,2.63,5.26,14.19-2.67,14.19h-19.68Z"/>
    <path class="st4" d="M853.18,919.37h37.91c.77,0,3.65,2.51,4.21,3.47,3.36,5.74-1.96,9.84-7.34,10.68-8.71,1.35-30.89,1.06-40.04.24-8.42-.76-11.28-2.16-12.05-10.98-1.84-20.93,1.24-44.78.29-66.01.05-6.69,7.92-10.99,13.57-7.36.82.53,3.45,4.72,3.45,5.18v64.78Z"/>
    <path class="st4" d="M923.24,919.37h36.95c.61,0,4.38,2.98,4.79,3.85,2.57,5.58-1.79,9.46-6.94,10.31-8.12,1.35-32.42,1.08-41.03.22-6.5-.65-10.46-2.08-11.09-9.06-2.03-22.41,1.44-48.11.25-70.86,3.34-9.62,17.07-5.99,17.07,3.63v61.91Z"/>
    <path class="st6" d="M649.72,257.13c3.43-19.67-17.44-32.83-15.12-52.06.43-3.58,6.32-18.89,9.78-18.97,1.32-.03,5.12,2.26,6.57,3.08,27.93,15.77,19.22,49.97-1.24,67.95Z"/>
    <path class="st24" d="M526.85,257.13c-18.97-16.79-27.94-48.26-4.73-65.68,9.25-6.94,11.79-7.41,16.72,3.31,12.15,26.42-14.08,37.35-11.99,62.37Z"/>
    <path class="st4" d="M803.58,850.57c6.13-6.7,14.14-.3,15.05,7.85,1.62,14.48,1.46,49.66-.02,64.29-1.4,13.89-15.91,14.02-17.26,1.93-2.37-21.19,1.78-46.52-.03-68.16.2-1.77,1.07-4.63,2.25-5.92Z"/>
    <path class="st18" d="M697.7,473.07c-1.35,1.27-1.84.74-.96-.96,4.39-14.45-13.43-31.47-12.47-48.44.26-4.55,4.64-19.06,8.63-21.22,1.56-.84,9.22,5.37,10.6,6.76,19.35,19.55,12.26,46.56-5.8,63.86Z"/>
    <path class="st1" d="M430.88,500.91c.91,1.1.27,1.42-1.92.96-21.03-1.53-50.16,15.17-66.68.94-6.04-5.21-6.92-7.23-.96-12.43,21.05-18.38,51.45-5.66,69.56,10.54Z"/>
    <path class="st18" d="M748.57,501.87c-1,.59-1.99.78-2.88,0,16.5-13.09,33.45-24.91,56.09-19.13,4.04,1.03,19.5,9.27,18.63,13.72-.82,4.14-12.87,11.6-17.6,12.14-16.58,1.87-35.39-6.72-54.23-6.72Z"/>
    <path class="st24" d="M491.97,443.94c-15.84,15.83-41.14-5.91-27.48-24.12,15.3-20.41,45.43,6.19,27.48,24.12Z"/>
    <path class="st4" d="M265.8,981.75v-26.39c0-2.93,7.68-2.93,7.68,0v37.43c0,3.36-5.76,4.18-8.59,1.86-5.83-4.79-11.62-20.89-18.29-26.33v25.43c0,2.93-7.68,2.93-7.68,0v-37.43c0-1.74,4.28-4.22,7.25-2.45,5.95,3.54,13.4,22.83,19.62,27.88Z"/>
    <path class="st4" d="M406.89,992.79c-.6,3.64-6.68,4.98-7.65-.03.94-11.23-1.34-24.6-.08-35.54.49-4.3,4.65-5.46,7.81-2.89,4.61,3.75,12.36,19.43,16.93,25.25.61.78-.04,1.75,2.2,1.21v-25.43c0-1.99,6.65-4.65,7.59,1.97,1.03,7.25.76,25.01.13,32.62-.34,4.06-1.07,6.98-6.05,6.05-5.88-1.1-15.41-23.32-20.86-27.68-.87,7.44,1.18,17.38,0,24.47Z"/>
    <path class="st4" d="M587.33,992.79c-.93,4.45-6.77,4.62-7.65-.03-1.88-9.89,1.38-25.03-.08-35.54.28-4.24,4.69-5.43,7.81-2.89,4.61,3.75,12.36,19.43,16.93,25.25.61.78-.04,1.75,2.2,1.21v-25.43c0-1.99,6.65-4.65,7.59,1.97,1.03,7.25.76,25.01.13,32.62-.34,4.06-1.07,6.98-6.05,6.05-5.96-1.11-15.24-23.35-20.86-27.68-1.01,7.07,1.37,17.92,0,24.47Z"/>
    <path class="st4" d="M899,953.19c17-2.57,26.31,10.03,24.17,26.08-3.05,22.87-37.29,21.82-40.15.96-1.69-12.37,2.2-24.95,15.98-27.03ZM901.91,959.85c-17.67,2-11.72,37.57,6.65,27.84,10.51-5.56,7.64-29.46-6.65-27.84Z"/>
    <path class="st4" d="M356.98,956.32c.27-.95,2.26-2.16,3.38-2.37,3.26-.62,18.54-.52,22,.03,11.74,1.86,10.8,20.94-1.38,22.5,3.65,1.53,13.71,15.53,9.65,18.29-7.11,4.82-12.13-11.92-16.31-15.47-2.4-2.04-5.65-2.52-8.7-2.34v15.84c0,3.04-8.64,3.04-8.64,0v-36.47ZM365.61,971.2c4.22-.17,15.37,1.4,16.33-4.37,1.49-8.95-10.6-7.03-16.33-7.16v11.53Z"/>
    <path class="st4" d="M853.91,953.21c17.67-2.15,25.4,10.82,23.18,27.02-2.93,21.41-37.41,21.76-40.12-1.94-1.39-12.23,3.87-23.49,16.93-25.08ZM855.84,959.85c-13.9,1.56-13.67,26.73-.78,29.17,17.98,3.41,18.41-31.15.78-29.17Z"/>
    <path class="st4" d="M550.19,953.21c17.67-2.15,25.4,10.82,23.18,27.02-2.93,21.41-37.41,21.76-40.12-1.94-1.39-12.23,3.87-23.49,16.93-25.08ZM552.12,959.85c-13.9,1.56-13.67,26.73-.78,29.17,17.98,3.41,18.41-31.15.78-29.17Z"/>
    <path class="st11" d="M803.27,970.23h18.24v-13.92c0-2.84,7.91-7.37,8.68,3.8.43,6.25.93,28.22-.46,33.24-1.23,4.41-8.22,2.61-8.22-.57v-15.84h-18.24v16.8c0,2.27-6.47,4.3-8.2-1.39-.97-3.16-1.03-31.24-.23-34.87,1.44-6.48,8.43-4.58,8.43-2.12v14.88Z"/>
    <path class="st11" d="M327.23,960.64v9.6h18.72c2.79,0,2.79,6.72,0,6.72h-18.72v11.52h21.59c1.96,0,1.96,6.72,0,6.72h-27.83c-.17,0-1.69-1.48-1.91-1.93-.92-1.96-.91-35.46,0-37.4.21-.45,1.74-1.93,1.91-1.93h26.87c2.79,0,2.79,6.72,0,6.72h-20.64Z"/>
    <path class="st11" d="M712.32,981.04c4.25-4.86,7.13,3.45,8.85,5.55,5.95,7.22,19.55.79,14.04-6.37-3.13-4.06-17.81-2.26-21.93-10.68-7.35-15.02,20.41-22.87,28.04-10.77,1.69,2.68,2.71,7.36-1.1,8.45-4.39,1.25-4.16-3.31-6.47-5.67-5.38-5.53-18.28.33-11.47,5.72,5.48,4.34,20.24,2.33,22.23,12.32,3.6,18.08-24.44,22.27-31.65,8.61-.93-1.77-1.97-5.5-.53-7.13Z"/>
    <path class="st11" d="M467.22,985.72c-1.64-1.06-13.48.53-16.51-.17-1.73.41-2.32,12.07-8.33,10.22-5.13-1.59-1.89-6.79-.7-10.41,2.08-6.32,8.4-23.8,11.5-28.81s8.16-4.68,11.16-.1c2.02,3.08,12.31,29.04,13.15,32.93.82,3.77-.15,7.93-4.67,6.64-3.51-1-4.84-9.81-5.6-10.3ZM459.67,963.52c-1.57-1.65-1.62.51-2,1.35-.68,1.51-5.25,13.51-4.7,14h11.51c-1.29-2.1-4.25-14.77-4.8-15.35Z"/>
    <path class="st11" d="M629.66,985.71c-.81.71-1.67,8.79-4.19,9.82-4.05,1.67-6.93-.77-6.1-5.16.67-3.55,11.81-31.22,13.8-34.27,3.88-5.94,8.88-2.84,11.62,2.26s10.84,24.62,12.13,30.1c.6,2.56,1.24,6.61-2.13,7.56-6.44,1.8-5.77-9.34-8.57-10.29-1.16-.39-15.93-.56-16.56-.02ZM639.14,963.52c-1.56-1.67-1.63.52-2,1.35-1.97,4.33-2.66,9.63-4.7,14h11.51c-.68-2.1-4.26-14.77-4.81-15.35Z"/>
    <path class="st4" d="M783.75,958.08c4.91,4.89,4.07,14.84-2.58,10.73-1.47-.91-2.41-5.98-6.44-7.95-17.23-8.43-22.96,28.54-4.58,28.58,10.36.02,8.15-12.81,15.2-10.44,3.67,1.23,1.56,7.12.12,9.43-5.39,8.67-19.15,9.98-27.25,4.29-9.52-6.69-10.52-24.51-3.35-32.97,6.72-7.93,21.49-9.02,28.87-1.67Z"/>
    <path class="st18" d="M457.53,482.86c20.48-2.82,23.94,32.69-1.25,29.59-15.7-1.93-15.76-27.25,1.25-29.59Z"/>
    <path class="st1" d="M569.82,338.91c18.64-2.69,21.32,25.91,3.47,27.58-17.45,1.63-20.32-25.15-3.47-27.58Z"/>
    <path class="st11" d="M300.35,960.64v32.15c0,3.04-8.64,3.04-8.64,0v-32.15c-3.36-.43-12.34,1.6-13.3-2.6-.16-.7.62-4.12.83-4.12h33.11c1.67,0,2.34,4.87-.48,6.24s-8.26.01-11.52.48Z"/>
    <path class="st11" d="M496.15,960.64v32.15c0,3.28-6.33,3.68-7.93.25-2.28-4.87.44-31.26-.7-32.41-3.21-.34-13.51,1.69-13.47-3.35,0-1.04,1.93-3.36,2.43-3.36h31.67c1.67,0,2.34,4.87-.48,6.24s-8.26.01-11.52.48Z"/>
    <path class="st22" d="M939.56,988.47h18.72c1.58,0,5.52,6.04-2.15,7.44-4.1.75-22.79,1.29-24.73-2.63-2.57-5.19.81-29.49-.27-36.77,1.3-4.42,8.44-2.75,8.44.77v31.19Z"/>
    <path class="st22" d="M690.5,988.47c1.51.42,2.9,3.45,2.33,5.16-1.23,3.63-23.01,3.12-26.41,1.65-3.08-1.33-3.04-3.29-3.31-6.29-.55-5.96-.87-26.31.26-31.5,1.16-5.33,8.42-4.55,8.42-1.17v32.15c4.98.89,14.4-1.21,18.72,0Z"/>
    <path class="st7" d="M564.03,511.69c17.5-3.6,20.56,21.03,5.3,23.57-15.82,2.64-19.58-20.63-5.3-23.57Z"/>
    <path class="st3" d="M463.19,588.58c19.42-.56,13.4,31.27-4.48,23.18-12.24-5.53-7.92-22.83,4.48-23.18Z"/>
    <path class="st15" d="M804,345.63c16.46-2.68,19.49,20.65,5.3,23.57-17.62,3.62-19.53-21.25-5.3-23.57Z"/>
    <path class="st7" d="M708.96,591.34c13.17-2.71,20.44,15.07,8.85,22.29-15.86,9.88-26.62-18.64-8.85-22.29Z"/>
    <path class="st21" d="M756.87,261.3c19.42-.56,13.4,31.27-4.48,23.18-12.12-5.48-7.87-22.83,4.48-23.18Z"/>
    <path class="st15" d="M374.96,346.6c16.46-3.34,20.27,20.95,5.3,23.56-16.46,2.87-19.49-20.68-5.3-23.56Z"/>
    <path class="st7" d="M416.22,265.03c17.27-3.53,20.65,21.01,5.3,23.57-16.05,2.68-18.72-20.83-5.3-23.57Z"/>
    <path class="st14" d="M221.88,994.95c-1.08-1.09-1.1-3.49-1.23-5-.67-7.9-.8-23.97.04-31.73.79-7.3,7.87-6.02,8.64-1.91.75,4.01.75,32.47,0,36.48-.56,2.99-5.21,4.43-7.45,2.16Z"/>
    <path class="st14" d="M522.79,954.16c1.08,1.09,1.1,3.49,1.23,5,.68,7.88.8,23.99-.04,31.73-.77,7.07-7.7,6.82-8.55.89-.99-6.99-.86-26.35-.09-33.55.47-4.42,4.23-7.33,7.45-4.07Z"/>
    <path class="st10" d="M726.25,492.47c14.93-2.83,17.57,19.55,3.48,20.87-13.59,1.27-15.51-18.59-3.48-20.87Z"/>
    <path class="st10" d="M565.01,463.72c15.34-3.97,18.88,16.35,6.99,19.46-15.23,3.98-17.69-16.69-6.99-19.46Z"/>
    <path class="st9" d="M671.56,403.2c11.57-1.69,16.09,14.14,6.24,18.79-14.67,6.92-20.6-16.69-6.24-18.79Z"/>
    <path class="st5" d="M729.09,302.44c13.73-3.2,16.96,15.5,7.05,18.56-15.18,4.68-18.79-15.82-7.05-18.56Z"/>
    <path class="st23" d="M485.59,487.47l-.96,1.92c-.25-1.18-1.73-2.8-.95-4.8,1.78.14,1.44,1.98,1.91,2.88Z"/>
    <path class="st17" d="M721.69,486.51l-.96-1.92c.82-.77,1.36-2.69,2.87-2.88.36,1.99-1.19,3.27-1.91,4.8Z"/>
    <path class="st20" d="M697.7,473.07c-.83.79-1.36,2.68-2.87,2.88-.74-1.83,1.65-2.99,1.91-3.84l.96.96Z"/>
    <path class="st12" d="M745.69,501.87c.96,0,1.92,0,2.88,0-.85,1.61-3.31.86-4.79.95v-.94c.57-.13,1.68.17,1.91,0Z"/>
    <path class="st13" d="M430.88,500.91c.59.53,1.96.76,1.92,1.91-1.52.74-3.3-.91-3.84-.95l1.92-.96Z"/>
    <path class="st19" d="M556.61,542.18c.42.52,2.02.75,1.92,1.91-1.56.58-2.14-.69-2.88-.95l.96-.96Z"/>
    <path class="st0" d="M595,344.47h-.96l.48-2.89c1.01,0,.25,2.04.48,2.89Z"/>
    <path class="st16" d="M737.05,386.7c-.26.1-.34,1.62-1.43.97l-.49-.49c.36-.67.93-.43.96-.48h.96Z"/>
  </g>
</svg>