<?xml version="1.0" encoding="UTF-8"?>
<svg id="Layer_1" xmlns="http://www.w3.org/2000/svg" version="1.1" viewBox="0 0 1200 1200">
  <!-- Generator: Adobe Illustrator 29.0.1, SVG Export Plug-In . SVG Version: 2.1.0 Build 192)  -->
  <defs>
    <style>
      .st0 {
        fill: #4c1178;
      }

      .st1 {
        fill: #d5df3e;
      }

      .st2 {
        fill: #d5de3e;
      }

      .st3 {
        fill: #691b33;
      }

      .st4 {
        fill: #93d5f6;
      }

      .st5 {
        fill: #94d6f6;
      }

      .st6 {
        fill: #f9ad40;
      }

      .st7 {
        fill: #016936;
      }

      .st8 {
        fill: #f8ad41;
      }

      .st9 {
        fill: #e92228;
      }

      .st10 {
        fill: #691b34;
      }

      .st11 {
        fill: #955f8c;
      }

      .st12 {
        fill: #949078;
      }

      .st13 {
        fill: #681b35;
      }

      .st14 {
        fill: #d4de3f;
      }

      .st15 {
        fill: #0a4a6b;
      }

      .st16 {
        fill: #551460;
      }

      .st17 {
        fill: #faae40;
      }

      .st18 {
        fill: #4f5bed;
      }

      .st19 {
        fill: #c1816b;
      }

      .st20 {
        fill: #f9ae40;
      }

      .st21 {
        fill: #681b34;
      }

      .st22 {
        fill: #490f7d;
      }

      .st23 {
        fill: #ea2227;
      }
    </style>
  </defs>
  <path class="st7" d="M1041.3,862.73c-2.32.15-4.73-1.42-6.72-1.91-1.19-.29-2.2-.8-2.88-.96-2.78-.66-5.85-1.32-8.64-1.92-165.33-35.17-342.27-44.02-511.04-40.27-114.34,2.54-232.61,10.01-346.03,25.88-3.79.53-8.45,1.28-12.48,1.91-1.87.3-3.86.65-5.76.96-1.36.23-3.16.67-4.8.96-.84-.27-.82-.59,0-.96,1.37-.39,3.25-.6,4.8-.96,1.57-.36,3.21-.6,4.8-.95,3.16-.7,6.43-1.23,9.6-1.92,99.43-21.73,202.18-43.55,303.77-51.82,31.08-2.54,62.43-4.22,93.57-5.77,18.41-3.92,38-4.57,56.63-1.92,135.57-2.51,279.7,34.9,408.86,73.9,2.5.76,5.18,1.15,7.68,1.92,1.33.42,2.9.63,3.84.96.86.31,5.79,2.07,4.8,2.87Z"/>
  <path class="st3" d="M595,344.47c3.01,11.03,4.7,23.62,5.75,35.04,4.9,53.23,2.17,108.83-.03,162.15-.43,10.39-.13,20.86-.92,31.24,1.64.08,3.21.19,4.78-.5,1.67-.75,10.34-9.83,13-11.95,32.85-26.07,72.8-47.5,103.15-75.85,1.36-1.04,1.68-.4.96,1.92-15.73,33.45-64.82,66.43-90.72,93.07-8.07,8.3-25.76,34.31-25.44,45.57,1.05,36.66,6.33,73.59,6.76,110.41l3.83,47.52c-19.01.35-37.65.97-56.63,1.92l11.34-164.4c-22.29-28.38-45.98-55.83-65.11-86.56-8.5-13.66-17.74-28.83-21.09-44.65-.37-1.7-.05-2.34.96-1.92,16.83,32.23,58.26,69.21,86.88,92.11,1.11.89,6.34,5.41,7.17,4.82l14.41-239.94c.27-.84.59-.83.96,0Z"/>
  <path class="st7" d="M574.36,174.76c31.71,18.12,67.37,45.75,63.82,86.67-1.97,22.7-13.95,55.43-34.61,67.12-8.32,4.71-9.29,3.63-17.84-.24-64.37-29.1-44.97-107.94-11.37-153.55Z"/>
  <path class="st7" d="M612.29,447.16c-5.32-42.29-1.7-103.12,40.28-126.23,17.07-9.39,40.86-10.7,60.04-9.14,9.07.74,7.81,5.92,8.96,14.08,10.06,71.73-59.66,63.78-95.39,102.08-5.4,5.79-9.14,12.96-13.9,19.21Z"/>
  <path class="st17" d="M565.24,447.16c-7.78-11.47-15.67-21.77-26.95-30.15-28.98-21.54-79.23-26.37-83.29-70.27-1.05-11.36.78-22.73,2.89-33.82,31.35-3.43,63.58-2.38,85.26,23.41,25.81,30.7,24.46,73,22.09,110.82Z"/>
  <path class="st5" d="M826.31,375.17c-2.31,48.55-17.58,110.5-79.89,99.56-2.8-.49-16.21-4-17.51-5.52-3.68-4.3-3.41-37.48-2.18-44.36,7.9-43.98,63.04-50.41,99.58-49.68Z"/>
  <path class="st7" d="M350.26,375.18c35.52-.74,90.92,5.2,99.53,47.79,2.94,14.53,1.13,31.38-1.54,45.88-2.12,2.8-21.34,6.77-25.54,7.09-56.71,4.3-69.56-56.57-72.45-100.76Z"/>
  <path class="st17" d="M518.22,575.76c-47.84,3.06-100.57,32.3-131.65-20.46-1.6-2.72-8.86-17.1-8.35-19.16.97-3.9,20.44-13.13,24.87-14.56,46.22-14.97,89.42,19.13,115.13,54.18Z"/>
  <path class="st7" d="M658.35,575.76c26.76-35.05,68.68-69.5,115.92-54.01,4.36,1.43,23.11,10.37,24.06,14.38,1.22,5.16-12.72,26.46-16.64,31.01-31.87,36.94-82.85,10.39-123.34,8.62Z"/>
  <path class="st23" d="M746.65,237.93c1.61,21.08-8.27,53.66-30.92,59.77-18.96,5.12-38.58-.64-56.61,3.85-5.96,1.49-11.74,4.72-14.68,10.28-1.14-23.35,8.24-55.94,30.54-67.37,4.02-2.06,17.21-6.54,21.29-6.54h50.39Z"/>
  <path class="st5" d="M481.27,237.93c37.84,3.83,51.48,40.51,52.3,73.9-4.14-5.14-8.58-8.6-15.15-10.27-22.3-5.69-53.89,6.01-71.72-12.74-6.39-6.72-15.81-26.02-15.81-35.05v-15.84c16.14,1.2,34.52-1.61,50.39,0Z"/>
  <path class="st23" d="M667.77,428.13c.66.39,6.26,11.75,7.06,13.58,12.16,28.03,9.62,41.25-8.01,65.27-11.24,15.31-28.12,31.33-46.87,36.14,13.87-19.46,2.64-44.72,3.79-66.74.77-14.66,5.71-27.14,17.4-36.34,3.68-2.89,23.12-13.98,26.62-11.91Z"/>
  <path class="st5" d="M556.61,542.18c1.26,1.25.73,1.59-.96.96-17.75-6.17-32.12-19.05-43.57-33.69-18.48-23.64-22.58-37.48-10.63-66.09,1.37-3.28,6.51-15.09,9.59-15.4,4.36-.44,18.83,7.85,22.84,10.75,39.71,28.74,1.9,77.72,22.73,103.48Z"/>
  <path class="st3" d="M393.45,925.61c-1.59,9.66-15.23,10.82-17.05.73l.25-72.27c.78-3.37,3.4-5.19,6.79-5.67,8.36-1.17,29.59-.85,38.36-.1,15.32,1.31,24.95,12.57,22.29,28.12-1.85,10.8-9.8,13.59-18.51,17.02-.88.35-2.99.08-1.41,1.91.22.25,4.34,2.18,5.65,3.48,4.37,4.34,16.41,22.05,16.32,27.75-.13,8.4-11.58,8.39-17.01,1.73-10.37-12.71-13.73-36.39-35.68-31.99-1.03,8.88,1.39,20.79,0,29.27ZM393.45,883.86h21.59c.31,0,5.38-1.42,5.99-1.69,8.5-3.9,7.99-16.8-.66-19.95-.56-.2-5.96-1.39-6.28-1.39h-20.64v23.03Z"/>
  <path class="st3" d="M314.54,848.61c32.21-3.87,50.95,16.51,48.18,48.18-4.3,49.17-74.76,47.83-80.36,3.61-3.03-23.92,5.43-48.58,32.17-51.79ZM317.4,862.03c-23.95,3.57-24.67,49.2-3.34,56.59,38.8,13.44,44.53-62.72,3.34-56.59Z"/>
  <path class="st3" d="M475.99,861.78v20.16h36.95c.27,0,4.86,1.95,5.06,2.14,2.76,2.7,1.03,11.3-3.14,11.3h-38.87v23.99h42.71c.25,0,4.13,2.15,4.4,2.56,4.49,7-1.79,11.17-8.25,11.82-10.68,1.08-35.39,1.15-45.95-.09-5.47-.65-10.45-2.71-10.23-8.97,1.87-21.65-2.34-47.03.02-68.21.58-5.19,2.98-7.59,8.16-8.16,15.78-1.76,34.73,1.34,50.87.05,7.8,1.46,5.29,13.41.02,13.41h-41.75Z"/>
  <path class="st3" d="M730.33,926.57c-1.63,8.2-14.69,9.9-16.85-.43-2.39-11.43-1.42-52.72-.47-65.84.58-8.05,2.97-14.33,12.49-11.4,1.73.53,4.83,4.26,4.83,5.68v27.35h35.51v-25.43c0-8.86,16.02-13.46,17.33.91,2,21.94-1.26,47.41-.47,69.7-2.62,9.67-16.86,7.34-16.86-2.46v-29.27h-35.51c-1.25,9.07,1.68,22.73,0,31.19Z"/>
  <path class="st7" d="M736.09,386.7c8.96-14.4,2.8-31.56,3.8-47.55.71-11.39,3.23-21.74,10.58-30.69,2.43-2.96,17.64-17.29,20.56-16.85.8.12,7.8,11.68,8.76,13.5,21.82,41.48-5.71,67.12-42.73,81.6-.29.5-.61.49-.96,0Z"/>
  <path class="st23" d="M449.12,388.6c-2.56,1.96-31.14-16.77-35.01-20.17-25.74-22.67-19.14-51.96.92-75.62,14.26,11.12,26.39,20.74,29.17,39.77s-4.72,39.1,4.92,56.02Z"/>
  <path class="st3" d="M552.11,874.92c9.08,10.07,39.27,4.02,45.5,25.04,10.54,35.59-49.15,44.79-62.31,18.16-2.07-4.18-4.32-13.07,1.17-15.53,11.86-5.31,11.24,12.97,21.37,16.99,17.91,7.09,33.64-12.21,17.37-20.25-12.6-6.23-37.17-4.64-40.44-23.86-5.06-29.77,43.73-35.87,57.2-15.93,3.32,4.91,5.44,13.92-1.71,16.21-9.67,3.1-9.88-9.52-16.41-13.45-11.02-6.63-30.68,2.72-21.74,12.63Z"/>
  <path class="st17" d="M616.12,638.63c3.3-29.38,30.53-44.94,58.1-42.74,2.7.22,15.52,2.66,17.16,3.76,2.46,1.65-4.74,21.07-6.3,24.45-12.62,27.46-29.57,18.29-52.66,24.12-6.72,1.7-10.31,5.38-16.31,8.17.46-5.68-.63-12.19,0-17.76Z"/>
  <path class="st23" d="M560.45,656.39l-13.21-7.41c-11.13-3.49-23.11-1.75-34.32-5.03-19.18-5.61-24.52-26.82-28.29-44.17,41.19-15.08,82.76,10.96,75.82,56.61Z"/>
  <path class="st3" d="M233.17,861.78v21.11h31.19c5.46,0,5.46,12.48,0,12.48h-31.19v30.23c0,.55-2.2,5.11-2.9,5.74-4.67,4.18-13.51,1.79-14.15-5,1.1-22.14-2.24-47.12-.28-68.93.51-5.65,2.29-8.44,8.19-9.1,14.01-1.55,30.78,1.18,45.11.05,7.67,1.92,5.89,13.41-.94,13.41h-35.03Z"/>
  <path class="st3" d="M648.75,862.74v63.82c0,6.65-14.44,11.11-16.85-.43l-.43-63.4h-19.68c-.55,0-5.13-2.21-5.74-2.9-4.78-5.48.3-10.96,6.65-11.54,18.44-1.69,39.66,1.18,58.39.25,7.84,2.63,5.26,14.19-2.67,14.19h-19.68Z"/>
  <path class="st3" d="M853.18,919.37h37.91c.77,0,3.65,2.51,4.21,3.47,3.36,5.74-1.96,9.84-7.34,10.68-8.71,1.35-30.89,1.06-40.04.24-8.42-.76-11.28-2.16-12.05-10.98-1.84-20.93,1.24-44.78.29-66.01.05-6.69,7.92-10.99,13.57-7.36.82.53,3.45,4.72,3.45,5.18v64.78Z"/>
  <path class="st3" d="M923.24,919.37h36.95c.61,0,4.38,2.98,4.79,3.85,2.57,5.58-1.79,9.46-6.94,10.31-8.12,1.35-32.42,1.08-41.03.22-6.5-.65-10.46-2.08-11.09-9.06-2.03-22.41,1.44-48.11.25-70.86,3.34-9.62,17.07-5.99,17.07,3.63v61.91Z"/>
  <path class="st5" d="M649.72,257.13c3.43-19.67-17.44-32.83-15.12-52.06.43-3.58,6.32-18.89,9.78-18.97,1.32-.03,5.12,2.26,6.57,3.08,27.93,15.77,19.22,49.97-1.24,67.95Z"/>
  <path class="st23" d="M526.85,257.13c-18.97-16.79-27.94-48.26-4.73-65.68,9.25-6.94,11.79-7.41,16.72,3.31,12.15,26.42-14.08,37.35-11.99,62.37Z"/>
  <path class="st3" d="M803.58,850.57c6.13-6.7,14.14-.3,15.05,7.85,1.62,14.48,1.46,49.66-.02,64.29-1.4,13.89-15.91,14.02-17.26,1.93-2.37-21.19,1.78-46.52-.03-68.16.2-1.77,1.07-4.63,2.25-5.92Z"/>
  <path class="st17" d="M697.7,473.07c-1.35,1.27-1.84.74-.96-.96,4.39-14.45-13.43-31.47-12.47-48.44.26-4.55,4.64-19.06,8.63-21.22,1.56-.84,9.22,5.37,10.6,6.76,19.35,19.55,12.26,46.56-5.8,63.86Z"/>
  <path class="st1" d="M430.88,500.91c.91,1.1.27,1.42-1.92.96-21.03-1.53-50.16,15.17-66.68.94-6.04-5.21-6.92-7.23-.96-12.43,21.05-18.38,51.45-5.66,69.56,10.54Z"/>
  <path class="st17" d="M748.57,501.87c-1,.59-1.99.78-2.88,0,16.5-13.09,33.45-24.91,56.09-19.13,4.04,1.03,19.5,9.27,18.63,13.72-.82,4.14-12.87,11.6-17.6,12.14-16.58,1.87-35.39-6.72-54.23-6.72Z"/>
  <path class="st23" d="M491.97,443.94c-15.84,15.83-41.14-5.91-27.48-24.12,15.3-20.41,45.43,6.19,27.48,24.12Z"/>
  <path class="st3" d="M265.8,981.75v-26.39c0-2.93,7.68-2.93,7.68,0v37.43c0,3.36-5.76,4.18-8.59,1.86-5.83-4.79-11.62-20.89-18.29-26.33v25.43c0,2.93-7.68,2.93-7.68,0v-37.43c0-1.74,4.28-4.22,7.25-2.45,5.95,3.54,13.4,22.83,19.62,27.88Z"/>
  <path class="st3" d="M406.89,992.79c-.6,3.64-6.68,4.98-7.65-.03.94-11.23-1.34-24.6-.08-35.54.49-4.3,4.65-5.46,7.81-2.89,4.61,3.75,12.36,19.43,16.93,25.25.61.78-.04,1.75,2.2,1.21v-25.43c0-1.99,6.65-4.65,7.59,1.97,1.03,7.25.76,25.01.13,32.62-.34,4.06-1.07,6.98-6.05,6.05-5.88-1.1-15.41-23.32-20.86-27.68-.87,7.44,1.18,17.38,0,24.47Z"/>
  <path class="st3" d="M587.33,992.79c-.93,4.45-6.77,4.62-7.65-.03-1.88-9.89,1.38-25.03-.08-35.54.28-4.24,4.69-5.43,7.81-2.89,4.61,3.75,12.36,19.43,16.93,25.25.61.78-.04,1.75,2.2,1.21v-25.43c0-1.99,6.65-4.65,7.59,1.97,1.03,7.25.76,25.01.13,32.62-.34,4.06-1.07,6.98-6.05,6.05-5.96-1.11-15.24-23.35-20.86-27.68-1.01,7.07,1.37,17.92,0,24.47Z"/>
  <path class="st3" d="M899,953.19c17-2.57,26.31,10.03,24.17,26.08-3.05,22.87-37.29,21.82-40.15.96-1.69-12.37,2.2-24.95,15.98-27.03ZM901.91,959.85c-17.67,2-11.72,37.57,6.65,27.84,10.51-5.56,7.64-29.46-6.65-27.84Z"/>
  <path class="st3" d="M356.98,956.32c.27-.95,2.26-2.16,3.38-2.37,3.26-.62,18.54-.52,22,.03,11.74,1.86,10.8,20.94-1.38,22.5,3.65,1.53,13.71,15.53,9.65,18.29-7.11,4.82-12.13-11.92-16.31-15.47-2.4-2.04-5.65-2.52-8.7-2.34v15.84c0,3.04-8.64,3.04-8.64,0v-36.47ZM365.61,971.2c4.22-.17,15.37,1.4,16.33-4.37,1.49-8.95-10.6-7.03-16.33-7.16v11.53Z"/>
  <path class="st3" d="M853.91,953.21c17.67-2.15,25.4,10.82,23.18,27.02-2.93,21.41-37.41,21.76-40.12-1.94-1.39-12.23,3.87-23.49,16.93-25.08ZM855.84,959.85c-13.9,1.56-13.67,26.73-.78,29.17,17.98,3.41,18.41-31.15.78-29.17Z"/>
  <path class="st3" d="M550.19,953.21c17.67-2.15,25.4,10.82,23.18,27.02-2.93,21.41-37.41,21.76-40.12-1.94-1.39-12.23,3.87-23.49,16.93-25.08ZM552.12,959.85c-13.9,1.56-13.67,26.73-.78,29.17,17.98,3.41,18.41-31.15.78-29.17Z"/>
  <path class="st10" d="M803.27,970.23h18.24v-13.92c0-2.84,7.91-7.37,8.68,3.8.43,6.25.93,28.22-.46,33.24-1.23,4.41-8.22,2.61-8.22-.57v-15.84h-18.24v16.8c0,2.27-6.47,4.3-8.2-1.39-.97-3.16-1.03-31.24-.23-34.87,1.44-6.48,8.43-4.58,8.43-2.12v14.88Z"/>
  <path class="st10" d="M327.23,960.64v9.6h18.72c2.79,0,2.79,6.72,0,6.72h-18.72v11.52h21.59c1.96,0,1.96,6.72,0,6.72h-27.83c-.17,0-1.69-1.48-1.91-1.93-.92-1.96-.91-35.46,0-37.4.21-.45,1.74-1.93,1.91-1.93h26.87c2.79,0,2.79,6.72,0,6.72h-20.64Z"/>
  <path class="st10" d="M712.32,981.04c4.25-4.86,7.13,3.45,8.85,5.55,5.95,7.22,19.55.79,14.04-6.37-3.13-4.06-17.81-2.26-21.93-10.68-7.35-15.02,20.41-22.87,28.04-10.77,1.69,2.68,2.71,7.36-1.1,8.45-4.39,1.25-4.16-3.31-6.47-5.67-5.38-5.53-18.28.33-11.47,5.72,5.48,4.34,20.24,2.33,22.23,12.32,3.6,18.08-24.44,22.27-31.65,8.61-.93-1.77-1.97-5.5-.53-7.13Z"/>
  <path class="st10" d="M467.22,985.72c-1.64-1.06-13.48.53-16.51-.17-1.73.41-2.32,12.07-8.33,10.22-5.13-1.59-1.89-6.79-.7-10.41,2.08-6.32,8.4-23.8,11.5-28.81s8.16-4.68,11.16-.1c2.02,3.08,12.31,29.04,13.15,32.93.82,3.77-.15,7.93-4.67,6.64-3.51-1-4.84-9.81-5.6-10.3ZM459.67,963.52c-1.57-1.65-1.62.51-2,1.35-.68,1.51-5.25,13.51-4.7,14h11.51c-1.29-2.1-4.25-14.77-4.8-15.35Z"/>
  <path class="st10" d="M629.66,985.71c-.81.71-1.67,8.79-4.19,9.82-4.05,1.67-6.93-.77-6.1-5.16.67-3.55,11.81-31.22,13.8-34.27,3.88-5.94,8.88-2.84,11.62,2.26s10.84,24.62,12.13,30.1c.6,2.56,1.24,6.61-2.13,7.56-6.44,1.8-5.77-9.34-8.57-10.29-1.16-.39-15.93-.56-16.56-.02ZM639.14,963.52c-1.56-1.67-1.63.52-2,1.35-1.97,4.33-2.66,9.63-4.7,14h11.51c-.68-2.1-4.26-14.77-4.81-15.35Z"/>
  <path class="st3" d="M783.75,958.08c4.91,4.89,4.07,14.84-2.58,10.73-1.47-.91-2.41-5.98-6.44-7.95-17.23-8.43-22.96,28.54-4.58,28.58,10.36.02,8.15-12.81,15.2-10.44,3.67,1.23,1.56,7.12.12,9.43-5.39,8.67-19.15,9.98-27.25,4.29-9.52-6.69-10.52-24.51-3.35-32.97,6.72-7.93,21.49-9.02,28.87-1.67Z"/>
  <path class="st17" d="M457.53,482.86c20.48-2.82,23.94,32.69-1.25,29.59-15.7-1.93-15.76-27.25,1.25-29.59Z"/>
  <path class="st1" d="M569.82,338.91c18.64-2.69,21.32,25.91,3.47,27.58-17.45,1.63-20.32-25.15-3.47-27.58Z"/>
  <path class="st10" d="M300.35,960.64v32.15c0,3.04-8.64,3.04-8.64,0v-32.15c-3.36-.43-12.34,1.6-13.3-2.6-.16-.7.62-4.12.83-4.12h33.11c1.67,0,2.34,4.87-.48,6.24s-8.26.01-11.52.48Z"/>
  <path class="st10" d="M496.15,960.64v32.15c0,3.28-6.33,3.68-7.93.25-2.28-4.87.44-31.26-.7-32.41-3.21-.34-13.51,1.69-13.47-3.35,0-1.04,1.93-3.36,2.43-3.36h31.67c1.67,0,2.34,4.87-.48,6.24s-8.26.01-11.52.48Z"/>
  <path class="st21" d="M939.56,988.47h18.72c1.58,0,5.52,6.04-2.15,7.44-4.1.75-22.79,1.29-24.73-2.63-2.57-5.19.81-29.49-.27-36.77,1.3-4.42,8.44-2.75,8.44.77v31.19Z"/>
  <path class="st21" d="M690.5,988.47c1.51.42,2.9,3.45,2.33,5.16-1.23,3.63-23.01,3.12-26.41,1.65-3.08-1.33-3.04-3.29-3.31-6.29-.55-5.96-.87-26.31.26-31.5,1.16-5.33,8.42-4.55,8.42-1.17v32.15c4.98.89,14.4-1.21,18.72,0Z"/>
  <path class="st6" d="M564.03,511.69c17.5-3.6,20.56,21.03,5.3,23.57-15.82,2.64-19.58-20.63-5.3-23.57Z"/>
  <path class="st2" d="M463.19,588.58c19.42-.56,13.4,31.27-4.48,23.18-12.24-5.53-7.92-22.83,4.48-23.18Z"/>
  <path class="st14" d="M804,345.63c16.46-2.68,19.49,20.65,5.3,23.57-17.62,3.62-19.53-21.25-5.3-23.57Z"/>
  <path class="st6" d="M708.96,591.34c13.17-2.71,20.44,15.07,8.85,22.29-15.86,9.88-26.62-18.64-8.85-22.29Z"/>
  <path class="st20" d="M756.87,261.3c19.42-.56,13.4,31.27-4.48,23.18-12.12-5.48-7.87-22.83,4.48-23.18Z"/>
  <path class="st14" d="M374.96,346.6c16.46-3.34,20.27,20.95,5.3,23.56-16.46,2.87-19.49-20.68-5.3-23.56Z"/>
  <path class="st6" d="M416.22,265.03c17.27-3.53,20.65,21.01,5.3,23.57-16.05,2.68-18.72-20.83-5.3-23.57Z"/>
  <path class="st13" d="M221.88,994.95c-1.08-1.09-1.1-3.49-1.23-5-.67-7.9-.8-23.97.04-31.73.79-7.3,7.87-6.02,8.64-1.91.75,4.01.75,32.47,0,36.48-.56,2.99-5.21,4.43-7.45,2.16Z"/>
  <path class="st13" d="M522.79,954.16c1.08,1.09,1.1,3.49,1.23,5,.68,7.88.8,23.99-.04,31.73-.77,7.07-7.7,6.82-8.55.89-.99-6.99-.86-26.35-.09-33.55.47-4.42,4.23-7.33,7.45-4.07Z"/>
  <path class="st9" d="M726.25,492.47c14.93-2.83,17.57,19.55,3.48,20.87-13.59,1.27-15.51-18.59-3.48-20.87Z"/>
  <path class="st9" d="M565.01,463.72c15.34-3.97,18.88,16.35,6.99,19.46-15.23,3.98-17.69-16.69-6.99-19.46Z"/>
  <path class="st8" d="M671.56,403.2c11.57-1.69,16.09,14.14,6.24,18.79-14.67,6.92-20.6-16.69-6.24-18.79Z"/>
  <path class="st4" d="M729.09,302.44c13.73-3.2,16.96,15.5,7.05,18.56-15.18,4.68-18.79-15.82-7.05-18.56Z"/>
  <path class="st22" d="M485.59,487.47l-.96,1.92c-.25-1.18-1.73-2.8-.95-4.8,1.78.14,1.44,1.98,1.91,2.88Z"/>
  <path class="st16" d="M721.69,486.51l-.96-1.92c.82-.77,1.36-2.69,2.87-2.88.36,1.99-1.19,3.27-1.91,4.8Z"/>
  <path class="st19" d="M697.7,473.07c-.83.79-1.36,2.68-2.87,2.88-.74-1.83,1.65-2.99,1.91-3.84l.96.96Z"/>
  <path class="st11" d="M745.69,501.87c.96,0,1.92,0,2.88,0-.85,1.61-3.31.86-4.79.95v-.94c.57-.13,1.68.17,1.91,0Z"/>
  <path class="st12" d="M430.88,500.91c.59.53,1.96.76,1.92,1.91-1.52.74-3.3-.91-3.84-.95l1.92-.96Z"/>
  <path class="st18" d="M556.61,542.18c.42.52,2.02.75,1.92,1.91-1.56.58-2.14-.69-2.88-.95l.96-.96Z"/>
  <path class="st0" d="M595,344.47h-.96l.48-2.89c1.01,0,.25,2.04.48,2.89Z"/>
  <path class="st15" d="M737.05,386.7c-.26.1-.34,1.62-1.43.97l-.49-.49c.36-.67.93-.43.96-.48h.96Z"/>
</svg>