<svg width="260" height="76" viewBox="0 0 260 76" fill="none" xmlns="http://www.w3.org/2000/svg">
<rect y="6" width="260" height="63" rx="8" fill="white"/>
<g clip-path="url(#clip0_359_220)">
<mask id="mask0_359_220" style="mask-type:alpha" maskUnits="userSpaceOnUse" x="6" y="10" width="74" height="54">
<rect x="6" y="10" width="74" height="54" rx="7" fill="#D9D9D9"/>
</mask>
<g mask="url(#mask0_359_220)">
<path fill-rule="evenodd" clip-rule="evenodd" d="M6 9V65H80V9H6Z" fill="#2E42A5"/>
<mask id="mask1_359_220" style="mask-type:luminance" maskUnits="userSpaceOnUse" x="6" y="9" width="74" height="56">
<path fill-rule="evenodd" clip-rule="evenodd" d="M6 9V65H80V9H6Z" fill="white"/>
</mask>
<g mask="url(#mask1_359_220)">
<path d="M-2.23944 60.9982L14.0452 67.9492L80.3677 16.5552L88.9586 6.22792L71.5455 3.90625L44.4939 26.0519L22.7194 40.9759L-2.23944 60.9982Z" fill="white"/>
<path d="M-0.0125122 65.868L8.28705 69.9L85.8737 5.26904H74.2257L-0.0125122 65.868Z" fill="#F50100"/>
<path d="M88.2394 60.9982L71.9548 67.9492L5.63232 16.5552L-2.95862 6.22792L14.4545 3.90625L41.5061 26.0519L63.2806 40.9759L88.2394 60.9982Z" fill="white"/>
<path d="M87.6844 64.4934L79.3872 68.5254L46.3508 40.852L36.5551 37.7627L-3.7865 6.2627H7.86388L48.18 37.016L58.8892 40.7214L87.6844 64.4934Z" fill="#F50100"/>
<path fill-rule="evenodd" clip-rule="evenodd" d="M51.7366 4.33301H34.2634V27.6663H1.43976V46.333H34.2634V69.6663H51.7366V46.333H84.6898V27.6663H51.7366V4.33301Z" fill="#F50100"/>
<mask id="mask2_359_220" style="mask-type:luminance" maskUnits="userSpaceOnUse" x="1" y="4" width="84" height="66">
<path fill-rule="evenodd" clip-rule="evenodd" d="M51.7366 4.33301H34.2634V27.6663H1.43976V46.333H34.2634V69.6663H51.7366V46.333H84.6898V27.6663H51.7366V4.33301Z" fill="white"/>
</mask>
<g mask="url(#mask2_359_220)">
<path d="M34.2634 4.33317V-0.333496H29.6384V4.33317H34.2634ZM51.7366 4.33317H56.3616V-0.333496H51.7366V4.33317ZM34.2634 27.6665V32.3332H38.8884V27.6665H34.2634ZM1.43976 27.6665V22.9998H-3.18524V27.6665H1.43976ZM1.43976 46.3332H-3.18524V50.9998H1.43976V46.3332ZM34.2634 46.3332H38.8884V41.6665H34.2634V46.3332ZM34.2634 69.6665H29.6384V74.3332H34.2634V69.6665ZM51.7366 69.6665V74.3332H56.3616V69.6665H51.7366ZM51.7366 46.3332V41.6665H47.1116V46.3332H51.7366ZM84.6898 46.3332V50.9998H89.3148V46.3332H84.6898ZM84.6898 27.6665H89.3148V22.9998H84.6898V27.6665ZM51.7366 27.6665H47.1116V32.3332H51.7366V27.6665ZM34.2634 8.99984H51.7366V-0.333496H34.2634V8.99984ZM38.8884 27.6665V4.33317H29.6384V27.6665H38.8884ZM1.43976 32.3332H34.2634V22.9998H1.43976V32.3332ZM6.06476 46.3332V27.6665H-3.18524V46.3332H6.06476ZM34.2634 41.6665H1.43976V50.9998H34.2634V41.6665ZM38.8884 69.6665V46.3332H29.6384V69.6665H38.8884ZM51.7366 64.9998H34.2634V74.3332H51.7366V64.9998ZM47.1116 46.3332V69.6665H56.3616V46.3332H47.1116ZM84.6898 41.6665H51.7366V50.9998H84.6898V41.6665ZM80.0648 27.6665V46.3332H89.3148V27.6665H80.0648ZM51.7366 32.3332H84.6898V22.9998H51.7366V32.3332ZM47.1116 4.33317V27.6665H56.3616V4.33317H47.1116Z" fill="white"/>
</g>
</g>
</g>
</g>
<g clip-path="url(#clip1_359_220)">
<path d="M166 55.5001C166 57.6807 165.134 59.7721 163.592 61.314C162.05 62.856 159.958 63.7223 157.778 63.7223H100.222C98.0416 63.7223 95.9502 62.856 94.4082 61.314C92.8663 59.7721 92 57.6807 92 55.5001V18.5001C92 16.3194 92.8663 14.228 94.4082 12.6861C95.9502 11.1441 98.0416 10.2778 100.222 10.2778H157.778C159.958 10.2778 162.05 11.1441 163.592 12.6861C165.134 14.228 166 16.3194 166 18.5001V55.5001Z" fill="#032EA1"/>
<path d="M91.7256 22H165.726V52.5353H91.7256V22Z" fill="#E01E24"/>
<path d="M147.543 47.0662V45.2121H146.429V43.36H145.409V42.1555H144.945V41.2284H144.045L143.555 40.5275V37.2406L144.112 36.6836V33.6249L143.648 34.0422V33.0679H143.276V33.5324H142.538V32.0462L141.656 32.8356L141.936 31.8386L141.424 29.5446H141.144C141.144 29.5446 140.916 28.5703 140.451 28.5703C140.451 28.5703 140.636 27.9701 140.264 27.9701C139.892 27.9701 139.985 28.4326 139.985 28.4326C139.985 28.4326 139.337 28.7121 139.337 29.4049L138.967 29.3596L138.41 32.0462L138.803 32.8356L137.898 32.0462V34.0874H132.988V32.2333L132.708 32.5108V33.1604H132.061V32.5108L132.525 32.0935V31.2137L132.151 31.6064L131.594 30.8417V30.1921L131.271 30.5149L131.177 29.9599L131.641 29.2199L131.571 28.6176L131.041 29.2651V28.7101L131.273 28.2003L130.207 25.5096L129.952 24.7655L129.559 24.7202V24.3482C129.559 24.3482 129.28 23.7007 128.91 23.7007C128.54 23.7007 128.262 24.3482 128.262 24.3482V24.7202L127.869 24.7655L127.612 25.5096L126.548 28.2003L126.78 28.7101V29.2651L126.248 28.6176L126.176 29.2199L126.64 29.9599L126.55 30.5149L126.225 30.1921V30.8417L125.67 31.6064L125.298 31.2137V32.0935L125.762 32.5108V33.1604H125.115V32.5108L124.835 32.2333V34.0874H119.914V32.0462L119.01 32.8356L119.403 32.0462L118.846 29.3596L118.473 29.4049C118.473 28.7121 117.826 28.4326 117.826 28.4326C117.826 28.4326 117.918 27.9701 117.546 27.9701C117.176 27.9701 117.361 28.5703 117.361 28.5703C116.897 28.5703 116.667 29.5446 116.667 29.5446H116.389L115.879 31.8386L116.157 32.8356L115.277 32.0462V33.5304H114.535V33.0658H114.163V34.0401L113.7 33.6229V36.6815L114.255 37.2386V40.5254L113.764 41.2264H113.049V42.1534H112.403V43.358H111.474V45.21H110.457V47.0641H109.435L109.343 49.1012H148.47L148.563 47.0641L147.543 47.0662Z" fill="white"/>
<path d="M115.836 36.7305V40.2969H114.165L113.766 41.0739H115.836V49.105H116.539V36.7305H115.836ZM144.061 41.0739L143.695 40.2969H142.182V36.7305H141.488V49.105H142.182V41.0739H144.061ZM127.16 36.7305V40.2969H119.571V36.71H118.893V49.0844H119.571V41.0739H127.16V49.105H127.886V36.7305H127.16ZM138.273 36.7305V40.2969H130.875V36.7305H130.157V49.105H130.875V41.0739H138.273V49.105H139.15V36.7305H138.273Z" fill="#DB7F86"/>
</g>
<path d="M254 57.0001C254 59.2397 253.11 61.3876 251.527 62.9712C249.943 64.5549 247.795 65.4446 245.556 65.4446H186.444C184.205 65.4446 182.057 64.5549 180.473 62.9712C178.89 61.3876 178 59.2397 178 57.0001V19.0001C178 16.7605 178.89 14.6126 180.473 13.029C182.057 11.4453 184.205 10.5557 186.444 10.5557H245.556C247.795 10.5557 249.943 11.4453 251.527 13.029C253.11 14.6126 254 16.7605 254 19.0001V57.0001Z" fill="#DE2910"/>
<path d="M201.509 18.9516L203.063 19.7032L204.307 18.5083L204.072 20.2183L205.592 21.0332L203.895 21.3372L203.591 23.0345L202.776 21.5145L201.066 21.7489L202.261 20.5054L201.509 18.9516ZM211.358 25.1604L210.606 26.7121L211.801 27.9576L210.093 27.7212L209.278 29.2433L208.974 27.5439L207.275 27.2399L208.797 26.425L208.56 24.7171L209.806 25.912L211.358 25.1604ZM209.337 33.1383L209.903 34.7681L211.628 34.804L210.254 35.8447L210.754 37.4977L209.337 36.5119L207.921 37.4977L208.419 35.8447L207.045 34.804L208.769 34.7681L209.337 33.1383ZM201.509 40.0627L203.063 40.8143L204.307 39.6194L204.072 41.3294L205.592 42.1443L203.895 42.4483L203.591 44.1456L202.776 42.6256L201.066 42.86L202.261 41.6165L201.509 40.0627ZM192.778 23.119L194.739 28.7577L200.705 28.8802L195.949 32.486L197.678 38.1986L192.778 34.7892L187.878 38.1986L189.607 32.486L184.851 28.8802L190.817 28.7577L192.778 23.119Z" fill="#FFDE02"/>
<defs>
<clipPath id="clip0_359_220">
<rect width="74" height="54" fill="white" transform="translate(6 10)"/>
</clipPath>
<clipPath id="clip1_359_220">
<rect width="74" height="74" fill="white" transform="translate(92)"/>
</clipPath>
</defs>
</svg>
