<svg width="38" height="37" viewBox="0 0 38 37" fill="none" xmlns="http://www.w3.org/2000/svg">
<circle cx="19.16" cy="18.4" r="18.4" fill="url(#paint0_linear_173_3658)"/>
<path d="M19.16 5.52C15.6647 5.52 15.2252 5.5361 13.8519 5.59728C12.4785 5.66168 11.5431 5.87742 10.7236 6.1962C9.86364 6.51872 9.08488 7.02599 8.44226 7.68223C7.78602 8.32485 7.27875 9.10361 6.95623 9.9636C6.63745 10.7815 6.4201 11.7185 6.35731 13.087C6.29613 14.4636 6.28003 14.9015 6.28003 18.4016C6.28003 21.8985 6.29613 22.3365 6.35731 23.7098C6.42171 25.0815 6.63745 26.0169 6.95623 26.8364C7.28628 27.6833 7.72581 28.4013 8.44226 29.1178C9.1571 29.8342 9.87516 30.2754 10.722 30.6038C11.5431 30.9226 12.4769 31.1399 13.8486 31.2027C15.2236 31.2639 15.6615 31.28 19.16 31.28C22.6586 31.28 23.0949 31.2639 24.4698 31.2027C25.8399 31.1383 26.7785 30.9226 27.598 30.6038C28.4575 30.2811 29.2356 29.7738 29.8778 29.1178C30.5942 28.4013 31.0338 27.6833 31.3638 26.8364C31.681 26.0169 31.8983 25.0815 31.9627 23.7098C32.0239 22.3365 32.04 21.8985 32.04 18.4C32.04 14.9015 32.0239 14.4636 31.9627 13.0886C31.8983 11.7185 31.681 10.7815 31.3638 9.9636C31.0413 9.10361 30.534 8.32485 29.8778 7.68223C29.2352 7.02599 28.4564 6.51872 27.5964 6.1962C26.7753 5.87742 25.8383 5.66007 24.4682 5.59728C23.0933 5.5361 22.6569 5.52 19.1568 5.52H19.16ZM18.0057 7.84162H19.1616C22.6006 7.84162 23.0079 7.85289 24.3652 7.91568C25.621 7.97203 26.3036 8.18294 26.7576 8.35843C27.3581 8.59188 27.788 8.87202 28.2388 9.32282C28.6896 9.77362 28.9682 10.2019 29.2016 10.804C29.3787 11.2564 29.588 11.9391 29.6444 13.1949C29.7071 14.5521 29.72 14.9594 29.72 18.3968C29.72 21.8341 29.7071 22.2431 29.6444 23.6003C29.588 24.8561 29.3771 25.5371 29.2016 25.9912C28.9936 26.5497 28.6642 27.055 28.2372 27.4707C27.7864 27.9215 27.3582 28.2001 26.756 28.4335C26.3052 28.6106 25.6226 28.8199 24.3652 28.8779C23.0079 28.9391 22.6006 28.9536 19.1616 28.9536C15.7227 28.9536 15.3137 28.9391 13.9565 28.8779C12.7007 28.8199 12.0197 28.6106 11.5657 28.4335C11.0067 28.2262 10.5008 27.8974 10.0845 27.4707C9.65664 27.0547 9.32668 26.5488 9.11846 25.9895C8.94297 25.5371 8.73206 24.8545 8.67571 23.5987C8.61453 22.2415 8.60165 21.8341 8.60165 18.3936C8.60165 14.953 8.61453 14.5489 8.67571 13.1917C8.73367 11.9359 8.94297 11.2532 9.12007 10.7992C9.35352 10.1987 9.63366 9.76879 10.0845 9.31799C10.5353 8.86719 10.9635 8.58866 11.5657 8.35521C12.0197 8.17811 12.7007 7.96881 13.9565 7.91085C15.1447 7.85611 15.6051 7.84001 18.0057 7.8384V7.84162ZM26.0363 9.9797C25.8334 9.9797 25.6324 10.0197 25.4449 10.0974C25.2573 10.175 25.087 10.2889 24.9434 10.4324C24.7999 10.5759 24.6861 10.7463 24.6084 10.9338C24.5307 11.1213 24.4907 11.3223 24.4907 11.5253C24.4907 11.7283 24.5307 11.9293 24.6084 12.1168C24.6861 12.3043 24.7999 12.4747 24.9434 12.6182C25.087 12.7617 25.2573 12.8756 25.4449 12.9532C25.6324 13.0309 25.8334 13.0709 26.0363 13.0709C26.4463 13.0709 26.8394 12.9081 27.1292 12.6182C27.4191 12.3283 27.5819 11.9352 27.5819 11.5253C27.5819 11.1154 27.4191 10.7223 27.1292 10.4324C26.8394 10.1425 26.4463 9.9797 26.0363 9.9797ZM19.1616 11.7861C18.2843 11.7724 17.413 11.9334 16.5985 12.2597C15.784 12.586 15.0425 13.071 14.4172 13.6866C13.7919 14.3022 13.2954 15.036 12.9564 15.8453C12.6175 16.6547 12.4429 17.5234 12.4429 18.4008C12.4429 19.2782 12.6175 20.1469 12.9564 20.9563C13.2954 21.7656 13.7919 22.4994 14.4172 23.115C15.0425 23.7306 15.784 24.2156 16.5985 24.5419C17.413 24.8682 18.2843 25.0292 19.1616 25.0155C20.8981 24.9884 22.5543 24.2796 23.7726 23.042C24.991 21.8045 25.6739 20.1375 25.6739 18.4008C25.6739 16.6641 24.991 14.9971 23.7726 13.7596C22.5543 12.522 20.8981 11.8132 19.1616 11.7861ZM19.1616 14.1061C19.7255 14.1061 20.2839 14.2172 20.8048 14.433C21.3258 14.6488 21.7991 14.9651 22.1979 15.3638C22.5966 15.7625 22.9129 16.2359 23.1287 16.7568C23.3444 17.2778 23.4555 17.8361 23.4555 18.4C23.4555 18.9639 23.3444 19.5222 23.1287 20.0432C22.9129 20.5641 22.5966 21.0375 22.1979 21.4362C21.7991 21.8349 21.3258 22.1512 20.8048 22.367C20.2839 22.5828 19.7255 22.6939 19.1616 22.6939C18.0228 22.6939 16.9307 22.2415 16.1254 21.4362C15.3202 20.631 14.8678 19.5388 14.8678 18.4C14.8678 17.2612 15.3202 16.169 16.1254 15.3638C16.9307 14.5585 18.0228 14.1061 19.1616 14.1061Z" fill="white"/>
<defs>
<linearGradient id="paint0_linear_173_3658" x1="19.16" y1="0" x2="19.16" y2="36.8" gradientUnits="userSpaceOnUse">
<stop stop-color="#F9CE34"/>
<stop offset="0.495749" stop-color="#EE2A7B"/>
<stop offset="0.964333" stop-color="#6228D7"/>
</linearGradient>
</defs>
</svg>
