<svg width="99" height="99" viewBox="0 0 99 99" fill="none" xmlns="http://www.w3.org/2000/svg">
<path d="M0.78125 45.8333C0.78125 20.9521 20.9521 0.78125 45.8333 0.78125C70.7146 0.78125 90.8854 20.9521 90.8854 45.8333C90.8854 47.7514 90.7674 49.6382 90.5312 51.4937C89.6368 51.1229 88.691 50.734 87.6937 50.3271C81.0437 47.6271 76.1937 45.8687 73.1438 44.8271C68.9354 43.3896 64.3937 43.3896 60.1854 44.8271C57.1354 45.8687 52.2854 47.6271 45.6375 50.3271C41.4917 52.0125 38.2375 53.4167 35.7396 54.5437C31.1292 56.6229 28.1187 61.0729 28.1187 66.1229L28.1229 66.4771V87.2708C12.0458 80.3917 0.78125 64.4271 0.78125 45.8333Z" fill="#8FBFFA"/>
<path d="M28.125 74.4167C27.1467 70.6372 26.3954 66.8026 25.875 62.9334H4.14166C3.3082 60.9029 2.62511 58.814 2.09791 56.6834H25.1875C24.8862 53.0746 24.7367 49.4547 24.7396 45.8334C24.7396 42.125 24.8937 38.4917 25.1896 34.9834H2.09583C2.62916 32.8334 3.30971 30.75 4.13749 28.7334H25.8812C26.8187 21.9334 28.3042 15.7604 30.2104 10.6084C31.3625 7.49378 32.6958 4.67712 34.2083 2.29587C37.4792 1.42503 40.8958 0.912533 44.4167 0.804199C43.4708 1.17087 42.3958 1.93128 41.2146 3.2917C39.4021 5.3792 37.6271 8.57503 36.0729 12.775C34.4187 17.2479 33.0812 22.675 32.1937 28.7334H59.4708C58.5833 22.675 57.2479 17.2479 55.5917 12.775C54.0375 8.57503 52.2625 5.3792 50.45 3.2917C49.2687 1.93128 48.1937 1.17087 47.2479 0.804199C50.7687 0.912533 54.1854 1.42503 57.4562 2.29587C58.9687 4.67712 60.3021 7.49378 61.4542 10.6084C63.3604 15.7604 64.8437 21.9334 65.7833 28.7334H87.525C88.3542 30.75 89.0354 32.8334 89.5687 34.9834H66.475C66.7195 37.9005 66.8647 40.8251 66.9104 43.7521C64.7952 43.7258 62.6891 44.0352 60.6708 44.6688C60.6421 41.4347 60.4857 38.203 60.2021 34.9813H31.4625C31.145 38.5906 30.9872 42.2122 30.9896 45.8354C30.9896 49.5688 31.1521 53.2042 31.4604 56.6834H32.4146C31.0219 57.8984 29.9151 59.4063 29.1732 61.099C28.4312 62.7917 28.0726 64.6275 28.1229 66.475V74.4188L28.125 74.4167Z" fill="#2859C5"/>
<path d="M71.125 49.7C68.2353 48.7095 65.0981 48.7095 62.2084 49.7C59.2729 50.7042 54.5333 52.4188 47.9917 55.075C44.7392 56.3895 41.5115 57.7648 38.3104 59.2C35.8396 60.3146 34.3708 62.6 34.3708 65.0813L34.375 65.3063V90.2104C34.375 91.0392 34.7043 91.8341 35.2903 92.4201C35.8764 93.0062 36.6712 93.3354 37.5 93.3354C38.3288 93.3354 39.1237 93.0062 39.7097 92.4201C40.2958 91.8341 40.625 91.0392 40.625 90.2104V71.9896C42.6625 72.8792 45.1 73.9104 47.9917 75.0854C54.5333 77.7438 59.2729 79.4583 62.2104 80.4604C65.1001 81.4509 68.2374 81.4509 71.1271 80.4604C74.0625 79.4583 78.8021 77.7438 85.3438 75.0854C88.5963 73.7709 91.8239 72.3957 95.025 70.9604C97.4958 69.8479 98.9625 67.5625 98.9625 65.0813C98.9625 62.6 97.4958 60.3146 95.025 59.2C91.8239 57.7648 88.5963 56.3895 85.3438 55.075C78.8021 52.4188 74.0625 50.7042 71.125 49.7Z" fill="#2859C5"/>
<path d="M45.8334 80.9542C52.3834 83.6126 57.1667 85.3438 60.1875 86.3751C64.3959 87.8126 68.9375 87.8126 73.1459 86.3751C76.1667 85.3438 80.95 83.6126 87.5 80.9563C87.4875 85.0042 87.2771 87.6646 87.05 89.3688C86.9014 90.5567 86.4657 91.6905 85.7808 92.6723C85.0959 93.6542 84.1822 94.4545 83.1188 95.0042C80.275 96.473 74.9396 98.4146 66.6667 98.4146C58.3938 98.4146 53.0563 96.473 50.2146 95.0042C49.1508 94.4548 48.2367 93.6545 47.5514 92.6727C46.8661 91.6908 46.4302 90.5569 46.2813 89.3688C46.0542 87.6626 45.8438 85.0042 45.8334 80.9542Z" fill="#2859C5"/>
</svg>
