<svg width="98" height="98" viewBox="0 0 98 98" fill="none" xmlns="http://www.w3.org/2000/svg">
<path d="M59.5 77C80.763 77 98 59.763 98 38.5C98 17.237 80.763 0 59.5 0C38.237 0 21 17.237 21 38.5C21 59.763 38.237 77 59.5 77Z" fill="url(#paint0_radial_192_875)"/>
<path d="M59.5 77C80.763 77 98 59.763 98 38.5C98 17.237 80.763 0 59.5 0C38.237 0 21 17.237 21 38.5C21 59.763 38.237 77 59.5 77Z" fill="url(#paint1_radial_192_875)" fill-opacity="0.8"/>
<path opacity="0.6" d="M36.673 7.48996L61.11 31.941L66.885 26.173C64.357 22.6174 62.9991 18.3627 63 14C63 9.02996 64.729 4.45896 67.62 0.860962C70.1608 1.40719 72.6398 2.20928 75.019 3.25496C72.4674 5.37995 70.7561 8.34421 70.1917 11.6165C69.6273 14.8887 70.2467 18.255 71.939 21.112L84.14 8.91096C85.9367 10.4136 87.5863 12.0633 89.089 13.86L76.888 26.061C79.7443 27.7513 83.109 28.3697 86.3797 27.8054C89.6504 27.241 92.6133 25.5308 94.738 22.981C95.7833 25.3376 96.586 27.804 97.146 30.38C93.4175 33.3713 88.7801 35.001 84 35C79.6397 34.9994 75.3877 33.6416 71.834 31.115L66.066 36.89L90.503 61.327C89.1077 63.217 87.556 64.967 85.848 66.577L61.11 41.832L40.978 61.978L36.022 57.022L56.161 36.89L31.43 12.152C33.0324 10.4441 34.7874 8.88593 36.673 7.49696" fill="url(#paint2_linear_192_875)"/>
<path d="M10.5 35C7.71523 35 5.04451 36.1062 3.07538 38.0754C1.10625 40.0445 0 42.7152 0 45.5V52.5C0 64.5674 4.79374 76.1405 13.3266 84.6734C21.8595 93.2063 33.4326 98 45.5 98H52.5C55.2848 98 57.9555 96.8938 59.9246 94.9246C61.8938 92.9555 63 90.2848 63 87.5V80.5C63 68.4326 58.2063 56.8595 49.6734 48.3266C41.1405 39.7937 29.5674 35 17.5 35H10.5Z" fill="url(#paint3_radial_192_875)"/>
<path d="M10.5 35C7.71523 35 5.04451 36.1062 3.07538 38.0754C1.10625 40.0445 0 42.7152 0 45.5V52.5C0 64.5674 4.79374 76.1405 13.3266 84.6734C21.8595 93.2063 33.4326 98 45.5 98H52.5C55.2848 98 57.9555 96.8938 59.9246 94.9246C61.8938 92.9555 63 90.2848 63 87.5V80.5C63 68.4326 58.2063 56.8595 49.6734 48.3266C41.1405 39.7937 29.5674 35 17.5 35H10.5Z" fill="url(#paint4_radial_192_875)" fill-opacity="0.9"/>
<path d="M28.728 58.772C28.4026 58.4466 28.0163 58.1885 27.5911 58.0124C27.1659 57.8362 26.7102 57.7456 26.25 57.7456C25.7898 57.7456 25.3341 57.8362 24.9089 58.0124C24.4838 58.1885 24.0974 58.4466 23.772 58.772C23.4466 59.0974 23.1885 59.4838 23.0124 59.9089C22.8363 60.3341 22.7456 60.7898 22.7456 61.25C22.7456 61.7102 22.8363 62.1659 23.0124 62.5911C23.1885 63.0163 23.4466 63.4026 23.772 63.728L34.272 74.228C34.5974 74.5534 34.9838 74.8116 35.4089 74.9877C35.8341 75.1638 36.2898 75.2544 36.75 75.2544C37.2102 75.2544 37.6659 75.1638 38.0911 74.9877C38.5163 74.8116 38.9026 74.5534 39.228 74.228C39.5534 73.9026 39.8116 73.5163 39.9877 73.0911C40.1638 72.6659 40.2544 72.2102 40.2544 71.75C40.2544 71.2898 40.1638 70.8341 39.9877 70.4089C39.8116 69.9838 39.5534 69.5974 39.228 69.272L28.728 58.772Z" fill="#FFC470"/>
<defs>
<radialGradient id="paint0_radial_192_875" cx="0" cy="0" r="1" gradientUnits="userSpaceOnUse" gradientTransform="translate(69.867 117.103) rotate(-90) scale(134.541)">
<stop stop-color="#EB4824"/>
<stop offset="0.978" stop-color="#FF921F"/>
</radialGradient>
<radialGradient id="paint1_radial_192_875" cx="0" cy="0" r="1" gradientUnits="userSpaceOnUse" gradientTransform="translate(30.625 67.375) rotate(-45) scale(45.3727 62.0724)">
<stop offset="0.588" stop-color="#AA1D2D"/>
<stop offset="0.931" stop-color="#EB4824" stop-opacity="0.1"/>
</radialGradient>
<linearGradient id="paint2_linear_192_875" x1="88.62" y1="10.57" x2="47.327" y2="51.856" gradientUnits="userSpaceOnUse">
<stop offset="0.713" stop-color="#8E250B"/>
<stop offset="0.903" stop-color="#8E250B" stop-opacity="0"/>
</linearGradient>
<radialGradient id="paint3_radial_192_875" cx="0" cy="0" r="1" gradientUnits="userSpaceOnUse" gradientTransform="translate(5.726 37.863) rotate(53.531) scale(81.9021 74.0621)">
<stop offset="0.24" stop-color="#AE5606"/>
<stop offset="1" stop-color="#944600"/>
</radialGradient>
<radialGradient id="paint4_radial_192_875" cx="0" cy="0" r="1" gradientUnits="userSpaceOnUse" gradientTransform="translate(23.0106 114.67) rotate(10.938) scale(93.2274)">
<stop offset="0.626" stop-color="#FFA43D" stop-opacity="0"/>
<stop offset="0.927" stop-color="#FFA43D"/>
</radialGradient>
</defs>
</svg>
