<?xml version="1.0" encoding="UTF-8"?>
<svg id="Layer_1" data-name="Layer 1" xmlns="http://www.w3.org/2000/svg" viewBox="0 0 1200 1200">
  <defs>
    <style>
      .cls-1 {
        fill: #fff;
      }
    </style>
  </defs>
  <path class="cls-1" d="M556.03,819.68c38.45-3.16,96.87-3.11,135.49-.55,86.79,5.75,149.36,77.37,138,164.8-112.76,107.11-297.1,107.05-408.87-1.26-8.78-85.95,49.52-155.93,135.38-162.98Z"/>
  <path class="cls-1" d="M943.56,230.73c.66,3.32-.83,3.88-3.28,5.32-9.22,5.41-29.31,8.08-37.73,14-1.79,1.25-3.15,2.15-3.11,4.61l6.07,57.23c1.16,3.52,11.01,4.76,14.92,8.08,8.2,6.94,9.16,23.86,9.8,34.28.46,7.42,1.35,40.14-2.77,43.39-2.95,2.33-38.81,2.74-44.27,1.73-5.84-1.08-6.4-19.12-6.79-25.8-.74-12.72-1.88-38.66,4.97-48.86,3.03-4.51,10.1-7.56,11.39-9.69,2.66-4.38-1.49-46.64-2.89-54.59-.39-2.2-.79-3.71-2.99-4.71l-260.51,95.77-319.13-106.44c-.42-3.26,2.46-3.81,4.69-4.89,6.44-3.12,16.44-6.2,23.6-8.98,95.02-36.91,191.74-69.77,287.02-106.03l321,105.56Z"/>
  <path class="cls-1" d="M833.71,288.49c3.02-.64,4.02,2.1,4.43,4.53,2.59,15.21-.37,42.52-.07,59.49.22,12.53,7.01,31.63-3.64,42.2-64.91,29.66-133.06,53-198.93,80.89l-15.5-.86c-59.9-26.12-129.6-41.69-188.67-68.14-6.3-2.82-12.55-4.79-14.43-12.41,1.67-29.47-5.76-62.66-2.42-91.68.31-2.7.06-5.27,3.2-6.49l199.54,66.51,13.06.52c68.62-22.19,135.74-49.48,203.42-74.55Z"/>
  <path class="cls-1" d="M619.27,553.28c147.75-7.27,166.87,211.5,25.73,232.71-164.68,24.75-184.92-224.88-25.73-232.71Z"/>
  <path class="cls-1" d="M782.58,830.63c7.4-2.17,13.98-6.22,21.5-8.23,24.34-6.51,109.07-5.8,136.58-3.27,42.3,3.89,82.73,39.1,92.09,80.4,1.94,8.55,5.25,35.36,1.87,42.25-.77,1.56-20.1,16.47-23.37,18.79-43.67,30.98-97.58,44.77-151.13,40.67-27.5-2.1-14.56-4.59-12.55-18.45,5.55-38.42-12.39-92.08-37.18-121.56-7.04-8.36-20.26-17.59-25.92-25.82-1.11-1.62-2.67-1.89-1.88-4.79Z"/>
  <path class="cls-1" d="M468.25,830.63c.79,2.9-.77,3.17-1.88,4.79-5.67,8.24-18.89,17.46-25.92,25.82-24.91,29.61-42.76,82.96-37.18,121.56,2,13.86,14.95,16.34-12.55,18.45-52.25,4-103.17-8.62-146.52-37.61-4.02-2.69-26.88-19.63-27.98-21.85-3.39-6.89-.07-33.7,1.87-42.25,9.36-41.3,49.79-76.51,92.09-80.4,27.51-2.53,112.24-3.24,136.58,3.27,7.52,2.01,14.1,6.06,21.5,8.23Z"/>
  <path class="cls-1" d="M352.8,597.28c141.79-19.18,140.97,192.01,9.11,181.54-106.83-8.48-108.89-168.05-9.11-181.54Z"/>
  <path class="cls-1" d="M815.82,622.37c45.71-45.71,129.07-29.02,150.81,32.8,27.16,77.23-49.75,148.98-124.7,115.11-56.78-25.66-70.06-103.96-26.12-147.91Z"/>
  <path class="cls-1" d="M416.51,416.62l11.15,1.32,200.7,71.61c70.32-23.07,137.84-54.6,207.32-80.31,6.01-.37,4.85,12,4.48,16.11-.75,8.43-2.82,12.24-10.25,16.57l-192.97,77.26-6.72,1.12c-69.78-23.37-140.31-47.58-208.05-75.8-8.37-7.16-5.19-18.07-5.67-27.88Z"/>
</svg>