<svg
              width="38"
              height="37"
              viewBox="0 0 38 37"
              fill="none"
              xmlns="http://www.w3.org/2000/svg"
            >
              <circle cx="18.72" cy="18.4" r="18.4" fill="white" />
              <path
                d="M37.12 18.4C37.12 23.28 35.1814 27.9601 31.7308 31.4108C28.2801 34.8614 23.6 36.8 18.72 36.8C13.84 36.8 9.15991 34.8614 5.70924 31.4108C2.25857 27.9601 0.320007 23.28 0.320007 18.4C0.320007 13.52 2.25857 8.8399 5.70924 5.38924C9.15991 1.93857 13.84 0 18.72 0C23.6 0 28.2801 1.93857 31.7308 5.38924C35.1814 8.8399 37.12 13.52 37.12 18.4ZM19.3801 13.5838C17.5892 14.329 14.0119 15.87 8.64831 18.2068C7.77891 18.5518 7.32274 18.8907 7.27981 19.2234C7.21081 19.7823 7.91231 20.0031 8.86681 20.3044L9.26931 20.4309C10.2077 20.7368 11.4727 21.0933 12.1282 21.1071C12.7262 21.1224 13.3917 20.8771 14.1246 20.3711C19.1371 16.9886 21.7238 15.2789 21.8848 15.2421C21.9998 15.2145 22.1608 15.1823 22.2666 15.2789C22.3724 15.3755 22.3632 15.5549 22.3517 15.6032C22.2827 15.8999 19.5296 18.4575 18.1059 19.7823C17.662 20.1963 17.3469 20.4884 17.2825 20.5551C17.1407 20.7001 16.9966 20.8427 16.8501 20.9829C15.9761 21.8247 15.3229 22.4549 16.8846 23.4853C17.6367 23.9821 18.2393 24.3892 18.8396 24.7986C19.4928 25.2448 20.146 25.6887 20.9924 26.2453C21.2071 26.3864 21.4141 26.5297 21.6134 26.6754C22.3747 27.2182 23.0624 27.7058 23.9065 27.6276C24.3987 27.5816 24.907 27.1216 25.1646 25.7416C25.7741 22.4825 26.9724 15.4238 27.2484 12.5143C27.2658 12.2724 27.2557 12.0294 27.2185 11.7898C27.1962 11.5966 27.1027 11.4187 26.9563 11.2907C26.7468 11.1468 26.4975 11.072 26.2433 11.0768C25.5533 11.0883 24.4884 11.4586 19.3801 13.5838Z"
                fill="#4A9EDA"
              />
            </svg>