<svg
              width="38"
              height="37"
              viewBox="0 0 38 37"
              fill="none"
              xmlns="http://www.w3.org/2000/svg"
            >
              <circle cx="18.84" cy="18.4" r="18.4" fill="#C51C1C" />
              <path
                d="M18.9229 9.2H19.0662C20.3897 9.20491 27.0958 9.25403 28.9039 9.74845C29.4505 9.89934 29.9486 10.1935 30.3484 10.6014C30.7482 11.0094 31.0357 11.5169 31.1822 12.0732C31.3448 12.6953 31.4592 13.5188 31.5364 14.3685L31.5525 14.5388L31.588 14.9644L31.6008 15.1347C31.7055 16.6311 31.7184 18.0325 31.72 18.3386V18.4614C31.7184 18.779 31.7039 20.2754 31.588 21.8339L31.5751 22.0058L31.5606 22.1761C31.4801 23.1126 31.3609 24.0425 31.1822 24.7268C31.0357 25.2831 30.7482 25.7906 30.3484 26.1986C29.9486 26.6065 29.4505 26.9007 28.9039 27.0516C27.0362 27.5623 19.9373 27.5984 18.9535 27.6H18.7249C18.2273 27.6 16.1696 27.5902 14.0121 27.5149L13.7384 27.505L13.5983 27.4985L13.323 27.487L13.0477 27.4756C11.2604 27.3954 9.55857 27.266 8.77445 27.0499C8.22802 26.8992 7.73005 26.6053 7.33027 26.1976C6.93048 25.79 6.64287 25.2828 6.49615 24.7268C6.31743 24.0441 6.19829 23.1126 6.11778 22.1761L6.1049 22.0042L6.09202 21.8339C6.0121 20.7246 5.96807 19.6129 5.95999 18.5007L5.95999 18.2993C5.96321 17.9473 5.97609 16.7309 6.06304 15.3885L6.07431 15.2198L6.07914 15.1347L6.09202 14.9644L6.12744 14.5388L6.14354 14.3685C6.22083 13.5188 6.33514 12.6937 6.49777 12.0732C6.64424 11.5169 6.93174 11.0094 7.33154 10.6014C7.73134 10.1935 8.22944 9.89934 8.77606 9.74845C9.56018 9.53562 11.2621 9.40465 13.0493 9.32279L13.323 9.31133L13.5999 9.3015L13.7384 9.29659L14.0137 9.28513C15.5461 9.23504 17.079 9.20721 18.6122 9.20164L18.9229 9.2ZM16.2646 14.4553V22.3431L22.9578 18.4008L16.2646 14.4553Z"
                fill="white"
              />
            </svg>